<svg width="23" height="22" viewBox="0 0 23 22" fill="none" xmlns="http://www.w3.org/2000/svg">
<path d="M11.3335 22C5.2582 22 0.333496 17.0753 0.333496 11C0.333496 4.9247 5.2582 0 11.3335 0C17.4088 0 22.3335 4.9247 22.3335 11C22.3335 17.0753 17.4088 22 11.3335 22ZM11.3335 19.8C13.6674 19.8 15.9057 18.8729 17.556 17.2225C19.2064 15.5722 20.1335 13.3339 20.1335 11C20.1335 8.66609 19.2064 6.42778 17.556 4.77746C15.9057 3.12714 13.6674 2.2 11.3335 2.2C8.99959 2.2 6.76128 3.12714 5.11096 4.77746C3.46064 6.42778 2.5335 8.66609 2.5335 11C2.5335 13.3339 3.46064 15.5722 5.11096 17.2225C6.76128 18.8729 8.99959 19.8 11.3335 19.8ZM11.3335 16.5C11.0418 16.5 10.762 16.3841 10.5557 16.1778C10.3494 15.9715 10.2335 15.6917 10.2335 15.4C10.2335 15.1083 10.3494 14.8285 10.5557 14.6222C10.762 14.4159 11.0418 14.3 11.3335 14.3C11.6252 14.3 11.905 14.4159 12.1113 14.6222C12.3176 14.8285 12.4335 15.1083 12.4335 15.4C12.4335 15.6917 12.3176 15.9715 12.1113 16.1778C11.905 16.3841 11.6252 16.5 11.3335 16.5ZM12.7371 12.9602C12.5072 13.1399 12.2153 13.2209 11.9257 13.1855C11.6361 13.15 11.3724 13.0009 11.1927 12.771C11.013 12.5411 10.932 12.2492 10.9674 11.9596C11.0029 11.67 11.152 11.4063 11.3819 11.2266L11.8153 10.8878C11.9868 10.7547 12.1304 10.589 12.2378 10.4003C12.3452 10.2116 12.4142 10.0035 12.441 9.78803C12.4679 9.57256 12.4519 9.35391 12.394 9.14463C12.3362 8.93535 12.2376 8.73954 12.1039 8.56844C11.9702 8.39734 11.8041 8.25431 11.615 8.14754C11.4259 8.04078 11.2176 7.97238 11.0021 7.94627C10.7865 7.92016 10.5679 7.93686 10.3588 7.99539C10.1497 8.05393 9.95426 8.15316 9.7836 8.2874L9.3502 8.6262C9.23687 8.72002 9.10588 8.79016 8.96497 8.83246C8.82406 8.87476 8.67609 8.88837 8.52983 8.87247C8.38357 8.85657 8.24198 8.81149 8.11345 8.7399C7.98492 8.66832 7.87206 8.57167 7.78154 8.45569C7.69102 8.33971 7.62469 8.20675 7.58647 8.06468C7.54825 7.92261 7.53891 7.77431 7.55902 7.62857C7.57913 7.48283 7.62827 7.3426 7.70353 7.21618C7.7788 7.08977 7.87865 6.97974 7.9972 6.8926L8.4295 6.5538C9.23411 5.9251 10.2555 5.64179 11.269 5.76618C12.2825 5.89058 13.2051 6.41249 13.8338 7.2171C14.4625 8.02171 14.7458 9.04312 14.6214 10.0566C14.497 11.0701 13.9751 11.9927 13.1705 12.6214L12.7371 12.9602Z" fill="#8E9EA7"/>
</svg>
