<svg width="23" height="22" viewBox="0 0 23 22" fill="none" xmlns="http://www.w3.org/2000/svg">
<path d="M20.7 19.7629V7.60628L11.5 2.23716L2.3 7.60628V19.7629H6.9V16.6868C6.9 15.5002 7.38464 14.3621 8.24731 13.523C9.10998 12.6839 10.28 12.2125 11.5 12.2125C12.72 12.2125 13.89 12.6839 14.7527 13.523C15.6154 14.3621 16.1 15.5002 16.1 16.6868V19.7629H20.7ZM13.8 22V16.6868C13.8 16.0935 13.5577 15.5245 13.1263 15.1049C12.695 14.6854 12.11 14.4497 11.5 14.4497C10.89 14.4497 10.305 14.6854 9.87365 15.1049C9.44232 15.5245 9.2 16.0935 9.2 16.6868V22H2.3C1.69 22 1.10499 21.7643 0.673654 21.3448C0.242321 20.9252 1.06478e-10 20.3562 1.06478e-10 19.7629V7.60628C-3.82115e-06 7.21996 0.102845 6.84022 0.298532 6.50404C0.494219 6.16786 0.776073 5.8867 1.11665 5.68794L10.3166 0.318813C10.6741 0.110199 11.0831 0 11.5 0C11.9169 0 12.3259 0.110199 12.6833 0.318813L21.8833 5.68794C22.2239 5.8867 22.5058 6.16786 22.7015 6.50404C22.8972 6.84022 23 7.21996 23 7.60628V19.7629C23 20.3562 22.7577 20.9252 22.3263 21.3448C21.895 21.7643 21.31 22 20.7 22H13.8Z" fill="#8E9EA7"/>
</svg>
