<svg width="191" height="182" viewBox="0 0 191 182" fill="none" xmlns="http://www.w3.org/2000/svg">
<mask id="mask0_239_11" style="mask-type:luminance" maskUnits="userSpaceOnUse" x="0" y="0" width="191" height="182">
<path d="M0 1.85966e-05H191V182H0V1.85966e-05Z" fill="white"/>
</mask>
<g mask="url(#mask0_239_11)">
<path d="M24.6255 54.244C25.5377 52.6235 27.6582 52.0134 29.3592 52.8827C31.0599 53.7515 31.6971 55.771 30.7852 57.3915C29.873 59.0124 27.7567 59.6207 26.0561 58.7518C24.355 57.8826 23.7133 55.8646 24.6255 54.244ZM23.5566 60.6603C23.8836 60.4673 24.292 60.4779 24.6213 60.6675C24.7107 60.7189 24.8016 60.7684 24.8944 60.8157C24.988 60.8637 25.082 60.9089 25.1767 60.9515C25.5236 61.1072 25.7581 61.4247 25.77 61.7894L25.8108 63.0372L30.0747 62.9109L30.0346 61.6638C30.0228 61.298 30.2329 60.9627 30.5702 60.7877C30.7558 60.6908 30.9361 60.5845 31.1107 60.4692C31.4251 60.2613 31.8323 60.2322 32.1696 60.4047L33.321 60.9929L35.3375 57.409L34.1866 56.8208C33.8493 56.6486 33.6495 56.3094 33.6571 55.9446C33.6617 55.7422 33.6544 55.5402 33.6361 55.3393C33.6029 54.9746 33.7797 54.6226 34.106 54.4293L35.2183 53.7716L32.9699 50.3168L31.8514 50.9771C31.5259 51.169 31.1195 51.158 30.7921 50.9695C30.7027 50.9182 30.6118 50.869 30.519 50.8217C30.4265 50.774 30.3329 50.7292 30.2386 50.687C29.891 50.5305 29.6557 50.2116 29.6438 49.8458L29.6045 48.5973L25.3402 48.7232L25.3815 49.9674C25.3937 50.3332 25.184 50.6685 24.8474 50.8443C24.661 50.9415 24.4799 51.0481 24.3046 51.1646C23.9902 51.3728 23.5826 51.4019 23.2449 51.2294L22.0944 50.6415L20.0774 54.2251L21.228 54.8133C21.5657 54.9859 21.7658 55.3255 21.7574 55.6906C21.7528 55.8937 21.7597 56.0964 21.7777 56.2981C21.8105 56.6628 21.6333 57.0148 21.3067 57.2073L20.1966 57.8629L22.4454 61.3173L23.5566 60.6603Z" fill="#ECECEC"/>
<path d="M161.634 29.4235C162.986 29.4235 164.084 30.4693 164.084 31.7575C164.084 33.0457 162.986 34.0893 161.634 34.0893C160.283 34.0893 159.187 33.0457 159.187 31.7575C159.187 30.4693 160.283 29.4235 161.634 29.4235ZM157.123 30.9192C157.357 31.0474 157.485 31.2916 157.471 31.5479C157.468 31.6174 157.466 31.6873 157.466 31.7575C157.466 31.8285 157.468 31.8988 157.471 31.9686C157.485 32.2242 157.357 32.4673 157.124 32.5951L156.33 33.0322L157.823 35.4987L158.618 35.0623C158.851 34.9341 159.138 34.9469 159.363 35.087C159.487 35.1642 159.616 35.2355 159.748 35.3C159.987 35.4157 160.141 35.6458 160.141 35.9013V36.7734H163.13V35.9013C163.13 35.6458 163.284 35.4157 163.523 35.3C163.656 35.2355 163.784 35.1642 163.908 35.087C164.133 34.9469 164.42 34.9341 164.653 35.0623L165.448 35.4987L166.942 33.0322L166.144 32.5929C165.911 32.4648 165.784 32.222 165.797 31.9672C165.801 31.8977 165.803 31.8274 165.803 31.7575C165.803 31.6873 165.801 31.6174 165.797 31.5479C165.784 31.2916 165.912 31.0474 166.146 30.9196L166.942 30.4832L165.448 28.0163L164.655 28.4524C164.423 28.5809 164.136 28.5682 163.911 28.4284C163.786 28.3508 163.657 28.2799 163.523 28.2151C163.284 28.0993 163.13 27.8689 163.13 27.6134V26.7416H160.141V27.6134C160.141 27.8689 159.987 28.0993 159.748 28.2151C159.614 28.2799 159.485 28.3508 159.361 28.4284C159.135 28.5682 158.848 28.5809 158.616 28.4524L157.823 28.0163L156.33 30.4832L157.123 30.9192Z" fill="#ECECEC"/>
<path d="M158.818 85.198C158.818 82.3366 161.252 80.0169 164.255 80.0169C167.258 80.0169 169.692 82.3366 169.692 85.198C169.692 88.0595 167.258 90.3767 164.255 90.3767C161.252 90.3767 158.818 88.0595 158.818 85.198ZM152.615 85.198C152.615 91.3223 157.828 96.2895 164.255 96.2895C170.685 96.2895 175.895 91.3223 175.895 85.198C175.895 79.0708 170.685 74.1066 164.255 74.1066C157.828 74.1066 152.615 79.0708 152.615 85.198Z" fill="#ECECEC"/>
<path d="M162.017 74.5663H166.493L166.246 71.5469H162.264L162.017 74.5663Z" fill="#ECECEC"/>
<path d="M170.537 76.0033L173.702 79.0194L175.768 76.7178L172.952 74.0352L170.537 76.0033Z" fill="#ECECEC"/>
<path d="M175.495 82.7602V87.0256L178.664 86.7897V82.9961L175.495 82.7602Z" fill="#ECECEC"/>
<path d="M173.987 90.8788L170.822 93.8949L173.237 95.863L176.052 93.1804L173.987 90.8788Z" fill="#ECECEC"/>
<path d="M166.896 95.6033H162.42L162.667 98.6227H166.649L166.896 95.6033Z" fill="#ECECEC"/>
<path d="M158.376 94.1661L155.21 91.15L153.145 93.4516L155.96 96.1343L158.376 94.1661Z" fill="#ECECEC"/>
<path d="M153.418 87.4094V83.1441L150.249 83.3799V87.1736L153.418 87.4094Z" fill="#ECECEC"/>
<path d="M154.926 79.2908L158.091 76.2747L155.676 74.3066L152.86 76.9889L154.926 79.2908Z" fill="#ECECEC"/>
<path d="M46.047 76.8717C46.047 74.0103 48.4815 71.6909 51.4844 71.6909C54.4873 71.6909 56.9218 74.0103 56.9218 76.8717C56.9218 79.7331 54.4873 82.0503 51.4844 82.0503C48.4815 82.0503 46.047 79.7331 46.047 76.8717ZM39.8445 76.8717C39.8445 82.9964 45.0573 87.9635 51.4844 87.9635C57.9142 87.9635 63.1243 82.9964 63.1243 76.8717C63.1243 70.7448 57.9142 65.7803 51.4844 65.7803C45.0573 65.7803 39.8445 70.7448 39.8445 76.8717Z" fill="#ECECEC"/>
<path d="M49.2463 66.24H53.7226L53.4751 63.221H49.4939L49.2463 66.24Z" fill="#ECECEC"/>
<path d="M57.7664 67.6772L60.9316 70.6933L62.9971 68.3914L60.1817 65.709L57.7664 67.6772Z" fill="#ECECEC"/>
<path d="M62.7244 74.4339V78.6993L65.8931 78.4634V74.6698L62.7244 74.4339Z" fill="#ECECEC"/>
<path d="M61.2163 82.5525L58.051 85.5686L60.4664 87.5367L63.2818 84.8544L61.2163 82.5525Z" fill="#ECECEC"/>
<path d="M54.1252 87.277H49.6489L49.8965 90.2964H53.8777L54.1252 87.277Z" fill="#ECECEC"/>
<path d="M45.6055 85.84L42.4402 82.8239L40.3748 85.1255L43.1897 87.8082L45.6055 85.84Z" fill="#ECECEC"/>
<path d="M40.6472 79.0831V74.8177L37.4785 75.0536V78.8472L40.6472 79.0831Z" fill="#ECECEC"/>
<path d="M42.1553 70.9645L45.3206 67.9484L42.9048 65.9803L40.0898 68.663L42.1553 70.9645Z" fill="#ECECEC"/>
<path d="M76.8499 120.459L76.4282 122.929L75.9744 125.583L71.8312 149.789H65.0557L69.1988 125.583L69.653 122.929L70.0748 120.459H76.8499Z" fill="#ECECEC"/>
<path d="M75.8684 120.459C75.5117 122.911 75.1277 125.359 74.7396 127.806L73.5447 135.144L72.2929 142.472L71.6466 146.133L70.9739 149.79L71.5251 146.115L72.1023 142.443L73.2976 135.106L74.5498 127.777C74.9776 125.336 75.4093 122.896 75.8684 120.459Z" fill="#C8C8C8"/>
<path d="M76.4282 122.929L75.974 125.584H69.1985L69.6527 122.929H76.4282Z" fill="#C8C8C8"/>
<path d="M110.297 120.459L110.719 122.929L111.173 125.583L115.316 149.789H122.091L117.948 125.583L117.494 122.929L117.072 120.459H110.297Z" fill="#ECECEC"/>
<path d="M111.3 120.459C111.657 122.911 112.04 125.359 112.428 127.806L113.623 135.144L114.875 142.472L115.522 146.133L116.194 149.79L115.643 146.115L115.066 142.443L113.871 135.106L112.618 127.777C112.19 125.336 111.759 122.896 111.3 120.459Z" fill="#C8C8C8"/>
<path d="M110.718 122.929H117.494L117.948 125.584H111.172L110.718 122.929Z" fill="#C8C8C8"/>
<path d="M76.6028 113.65H71.2307L71.8988 108.878H75.935L76.6028 113.65Z" fill="#C8C8C8"/>
<path d="M78.9231 105.468C78.9231 108.103 76.6816 110.238 73.9166 110.238C71.1517 110.238 68.9102 108.103 68.9102 105.468C68.9102 102.834 71.1517 100.698 73.9166 100.698C76.6816 100.698 78.9231 102.834 78.9231 105.468Z" fill="#DCDCDC"/>
<path d="M77.7226 105.468C77.7226 107.471 76.0189 109.095 73.9167 109.095C71.8149 109.095 70.1108 107.471 70.1108 105.468C70.1108 103.466 71.8149 101.842 73.9167 101.842C76.0189 101.842 77.7226 103.466 77.7226 105.468Z" fill="white"/>
<path d="M77.0981 105.259C77.0309 104.372 76.5583 103.557 75.8555 103.033C75.1507 102.506 74.2182 102.263 73.2957 102.394C72.4041 102.521 71.5939 103.025 71.0957 103.757C70.5911 104.489 70.4207 105.449 70.6943 106.373C70.9147 107.131 71.4693 107.787 72.1802 108.166C72.8904 108.551 73.7396 108.669 74.5101 108.507C75.2855 108.352 75.9842 107.938 76.4644 107.367C76.9484 106.799 77.2379 106.083 77.2689 105.346C77.2708 105.312 77.2574 105.282 77.2387 105.281C77.2207 105.281 77.2043 105.308 77.202 105.344C77.189 105.643 77.1206 105.937 77.0244 106.218C76.9205 106.498 76.7761 106.761 76.6038 107.005C76.4246 107.246 76.2149 107.464 75.98 107.658C75.7409 107.848 75.4758 108.01 75.19 108.145C74.3828 108.513 73.4206 108.54 72.5924 108.204C71.765 107.874 71.098 107.191 70.8302 106.362C70.5418 105.484 70.6843 104.547 71.1634 103.823C71.6389 103.101 72.4343 102.601 73.3052 102.48C74.5074 102.316 75.7214 102.736 76.4579 103.676C76.6355 103.909 76.7746 104.163 76.883 104.43C76.9858 104.7 77.0488 104.982 77.0824 105.273C77.0844 105.281 77.0897 105.284 77.0939 105.281C77.0981 105.278 77.1 105.268 77.0981 105.259Z" fill="#ECECEC"/>
<path d="M76.6524 105.262C76.5852 104.5 76.1757 103.809 75.574 103.362C74.9704 102.915 74.1805 102.706 73.3878 102.809C72.6242 102.911 71.9209 103.337 71.4839 103.966C71.0416 104.592 70.8842 105.426 71.1145 106.231C71.2987 106.892 71.7827 107.469 72.4042 107.799C73.0238 108.134 73.7656 108.234 74.436 108.088C75.1095 107.949 75.7134 107.586 76.1275 107.089C76.5447 106.594 76.7937 105.977 76.8231 105.338C76.8251 105.308 76.8117 105.282 76.793 105.281C76.775 105.281 76.7586 105.304 76.7563 105.335C76.7001 106.38 76.0026 107.298 75.0182 107.753C74.3256 108.076 73.4887 108.105 72.7713 107.815C72.0539 107.531 71.4744 106.935 71.2486 106.216C71.0053 105.456 71.1355 104.645 71.5531 104.029C71.9683 103.411 72.6563 102.99 73.3981 102.895C74.4249 102.768 75.4487 103.115 76.0874 103.912C76.2406 104.11 76.3609 104.326 76.4564 104.554C76.5466 104.783 76.6031 105.024 76.6367 105.274C76.639 105.281 76.644 105.284 76.6482 105.281C76.6524 105.278 76.6543 105.27 76.6524 105.262Z" fill="#ECECEC"/>
<path d="M76.2069 105.265C76.1397 104.627 75.7932 104.062 75.2928 103.691C74.7904 103.324 74.1429 103.148 73.4798 103.225C72.8441 103.3 72.2482 103.649 71.872 104.174C71.4915 104.696 71.3482 105.402 71.5347 106.09C71.6833 106.655 72.0966 107.152 72.6283 107.432C73.1578 107.716 73.7915 107.799 74.3622 107.669C74.9337 107.547 75.4433 107.235 75.7913 106.811C76.1412 106.389 76.3498 105.87 76.378 105.329C76.3796 105.303 76.3666 105.282 76.3475 105.281C76.3295 105.281 76.3131 105.301 76.3112 105.327C76.2566 106.207 75.669 106.969 74.847 107.361C74.2686 107.639 73.557 107.67 72.9507 107.426C72.343 107.188 71.8509 106.679 71.6672 106.071C71.4689 105.427 71.5874 104.744 71.943 104.234C72.2983 103.721 72.8785 103.378 73.492 103.311C73.9214 103.268 74.337 103.313 74.719 103.45C75.1006 103.589 75.4502 103.824 75.7172 104.149C75.8459 104.311 75.9471 104.489 76.03 104.677C76.1076 104.866 76.158 105.066 76.1912 105.275C76.1935 105.281 76.1985 105.284 76.2031 105.281C76.2069 105.279 76.2088 105.272 76.2069 105.265Z" fill="#ECECEC"/>
<path d="M75.7613 105.268C75.6937 104.754 75.4103 104.314 75.0119 104.021C74.6104 103.733 74.105 103.591 73.5717 103.64C73.064 103.69 72.5751 103.961 72.2599 104.383C71.9417 104.799 71.8118 105.379 71.9547 105.949C72.0678 106.417 72.4101 106.834 72.852 107.065C73.2913 107.299 73.8177 107.364 74.2884 107.251C74.7578 107.144 75.1727 106.883 75.4542 106.533C75.7377 106.183 75.9057 105.764 75.9325 105.321C75.9336 105.3 75.9206 105.282 75.9019 105.281C75.8836 105.281 75.8672 105.297 75.8653 105.318C75.8133 106.034 75.335 106.64 74.6753 106.969C74.2116 107.202 73.6248 107.235 73.1294 107.037C72.6316 106.845 72.2271 106.423 72.0854 105.925C71.9322 105.399 72.0388 104.843 72.3333 104.439C72.6274 104.031 73.1003 103.768 73.5851 103.726C73.9262 103.7 74.2517 103.738 74.5512 103.844C74.8507 103.951 75.1295 104.131 75.3469 104.385C75.4508 104.512 75.5333 104.652 75.6032 104.8C75.6681 104.949 75.7121 105.108 75.7453 105.276C75.7476 105.281 75.7529 105.284 75.7571 105.281C75.7613 105.279 75.7629 105.274 75.7613 105.268Z" fill="#ECECEC"/>
<path d="M115.8 113.65H110.427L111.096 108.878H115.132L115.8 113.65Z" fill="#C8C8C8"/>
<path d="M118.12 105.468C118.12 108.103 115.879 110.238 113.114 110.238C110.349 110.238 108.107 108.103 108.107 105.468C108.107 102.834 110.349 100.698 113.114 100.698C115.879 100.698 118.12 102.834 118.12 105.468Z" fill="#DCDCDC"/>
<path d="M116.92 105.468C116.92 107.471 115.216 109.095 113.114 109.095C111.012 109.095 109.308 107.471 109.308 105.468C109.308 103.466 111.012 101.842 113.114 101.842C115.216 101.842 116.92 103.466 116.92 105.468Z" fill="white"/>
<path d="M116.295 105.259C116.228 104.372 115.755 103.557 115.052 103.033C114.348 102.506 113.416 102.263 112.493 102.394C111.601 102.521 110.791 103.025 110.293 103.757C109.788 104.489 109.618 105.449 109.891 106.373C110.112 107.131 110.666 107.787 111.378 108.166C112.087 108.551 112.937 108.669 113.707 108.507C114.483 108.352 115.181 107.938 115.662 107.367C116.145 106.799 116.434 106.083 116.466 105.346C116.468 105.312 116.455 105.282 116.436 105.281C116.417 105.281 116.401 105.308 116.399 105.344C116.386 105.643 116.318 105.937 116.221 106.218C116.117 106.498 115.973 106.761 115.801 107.005C115.622 107.246 115.412 107.464 115.177 107.658C114.938 107.848 114.673 108.01 114.387 108.145C113.58 108.513 112.617 108.54 111.789 108.204C110.962 107.874 110.295 107.191 110.027 106.362C109.739 105.484 109.881 104.547 110.36 103.823C110.836 103.101 111.631 102.601 112.502 102.48C113.705 102.316 114.918 102.736 115.655 103.676C115.832 103.909 115.971 104.163 116.08 104.43C116.183 104.7 116.246 104.982 116.279 105.273C116.282 105.281 116.287 105.284 116.291 105.281C116.295 105.278 116.297 105.268 116.295 105.259Z" fill="#ECECEC"/>
<path d="M115.85 105.262C115.782 104.5 115.373 103.809 114.771 103.362C114.168 102.915 113.378 102.706 112.585 102.809C111.821 102.911 111.118 103.337 110.681 103.966C110.239 104.592 110.081 105.426 110.312 106.231C110.496 106.892 110.98 107.469 111.601 107.799C112.221 108.134 112.962 108.234 113.633 108.088C114.307 107.949 114.911 107.586 115.325 107.089C115.742 106.594 115.991 105.977 116.02 105.338C116.022 105.308 116.009 105.282 115.99 105.281C115.972 105.281 115.955 105.304 115.954 105.335C115.897 106.38 115.2 107.298 114.215 107.753C113.523 108.076 112.686 108.105 111.969 107.815C111.251 107.531 110.671 106.935 110.446 106.216C110.203 105.456 110.333 104.645 110.75 104.029C111.165 103.411 111.853 102.99 112.595 102.895C113.622 102.768 114.646 103.115 115.285 103.912C115.437 104.11 115.558 104.326 115.653 104.554C115.744 104.783 115.8 105.024 115.834 105.274C115.836 105.281 115.841 105.284 115.845 105.281C115.85 105.278 115.852 105.27 115.85 105.262Z" fill="#ECECEC"/>
<path d="M115.404 105.265C115.337 104.627 114.99 104.062 114.49 103.691C113.988 103.324 113.34 103.148 112.677 103.225C112.041 103.3 111.445 103.649 111.069 104.174C110.688 104.696 110.545 105.402 110.732 106.09C110.88 106.655 111.293 107.152 111.825 107.432C112.355 107.716 112.989 107.799 113.559 107.669C114.131 107.547 114.64 107.235 114.988 106.811C115.338 106.389 115.547 105.87 115.575 105.329C115.576 105.303 115.563 105.282 115.544 105.281C115.526 105.281 115.51 105.301 115.508 105.327C115.454 106.207 114.866 106.969 114.044 107.361C113.466 107.639 112.754 107.67 112.148 107.426C111.54 107.188 111.048 106.679 110.864 106.071C110.666 105.427 110.784 104.744 111.14 104.234C111.495 103.721 112.075 103.378 112.689 103.311C113.119 103.268 113.534 103.313 113.916 103.45C114.298 103.589 114.647 103.824 114.914 104.149C115.043 104.311 115.144 104.489 115.227 104.677C115.304 104.866 115.355 105.066 115.388 105.275C115.39 105.281 115.396 105.284 115.4 105.281C115.404 105.279 115.406 105.272 115.404 105.265Z" fill="#ECECEC"/>
<path d="M114.958 105.268C114.891 104.754 114.607 104.314 114.208 104.021C113.807 103.733 113.302 103.591 112.769 103.64C112.261 103.69 111.772 103.961 111.457 104.383C111.139 104.799 111.009 105.379 111.152 105.949C111.265 106.417 111.607 106.834 112.049 107.065C112.488 107.299 113.014 107.364 113.485 107.251C113.955 107.144 114.37 106.883 114.651 106.533C114.935 106.183 115.103 105.764 115.129 105.321C115.131 105.3 115.118 105.282 115.099 105.281C115.081 105.281 115.064 105.297 115.062 105.318C115.01 106.034 114.532 106.64 113.872 106.969C113.409 107.202 112.822 107.235 112.326 107.037C111.829 106.845 111.424 106.423 111.283 105.925C111.129 105.399 111.236 104.843 111.53 104.439C111.825 104.031 112.297 103.768 112.782 103.726C113.123 103.7 113.449 103.738 113.748 103.844C114.048 103.951 114.327 104.131 114.544 104.385C114.648 104.512 114.73 104.652 114.801 104.8C114.865 104.949 114.909 105.108 114.942 105.276C114.945 105.281 114.95 105.284 114.954 105.281C114.958 105.279 114.96 105.274 114.958 105.268Z" fill="#ECECEC"/>
<path d="M127.327 123.522H59.8188V111.218H127.327V123.522Z" fill="#DCDCDC"/>
<path d="M73.6941 111.218L68.7945 123.522H60.0769L64.9761 111.218H73.6941Z" fill="#ECECEC"/>
<path d="M91.5657 111.218L86.6661 123.522H77.9451L82.8442 111.218H91.5657Z" fill="#ECECEC"/>
<path d="M109.434 111.218L104.534 123.522H95.8164L100.716 111.218H109.434Z" fill="#ECECEC"/>
<path d="M127.305 111.218L122.406 123.522H113.685L118.584 111.218H127.305Z" fill="#ECECEC"/>
<path d="M125.961 142.684H61.1855V134.897H125.961V142.684Z" fill="#DCDCDC"/>
<path d="M74.4988 134.898L69.7975 142.684H61.4329L66.1341 134.898H74.4988Z" fill="#ECECEC"/>
<path d="M91.6469 134.898L86.9456 142.684H78.5779L83.2788 134.898H91.6469Z" fill="#ECECEC"/>
<path d="M108.792 134.898L104.09 142.684H95.7256L100.427 134.898H108.792Z" fill="#ECECEC"/>
<path d="M125.939 134.898L121.238 142.684H112.87L117.572 134.898H125.939Z" fill="#ECECEC"/>
</g>
<mask id="mask1_239_11" style="mask-type:luminance" maskUnits="userSpaceOnUse" x="0" y="0" width="191" height="182">
<path d="M0 1.85966e-05H191V182H0V1.85966e-05Z" fill="white"/>
</mask>
<g mask="url(#mask1_239_11)">
<path d="M175.283 163.203C175.283 166.712 139.563 169.556 95.5001 169.556C51.4367 169.556 15.7163 166.712 15.7163 163.203C15.7163 159.694 51.4367 156.849 95.5001 156.849C139.563 156.849 175.283 159.694 175.283 163.203Z" fill="#ECECEC"/>
</g>
<path d="M53.6022 149.67L32.6533 149.702L11.7048 149.79L32.6533 149.879L53.6022 149.911L95.5 149.972L137.398 149.911L158.346 149.879L179.295 149.79L158.346 149.701L137.398 149.669L95.5 149.609L53.6022 149.67Z" fill="#1A2E35"/>
<mask id="mask2_239_11" style="mask-type:luminance" maskUnits="userSpaceOnUse" x="0" y="0" width="191" height="182">
<path d="M0 1.85966e-05H191V182H0V1.85966e-05Z" fill="white"/>
</mask>
<g mask="url(#mask2_239_11)">
<path d="M135.621 44.9139C135.621 41.9593 138.134 39.5642 141.235 39.5642C144.335 39.5642 146.849 41.9593 146.849 44.9139C146.849 47.8685 144.335 50.2607 141.235 50.2607C138.134 50.2607 135.621 47.8685 135.621 44.9139ZM129.216 44.9139C129.216 51.2376 134.599 56.3664 141.235 56.3664C147.874 56.3664 153.254 51.2376 153.254 44.9139C153.254 38.5875 147.874 33.4613 141.235 33.4613C134.599 33.4613 129.216 38.5875 129.216 44.9139Z" fill="#C8C8C8"/>
<path d="M138.924 33.9363H143.547L143.291 30.8186H139.18L138.924 33.9363Z" fill="#C8C8C8"/>
<path d="M147.721 35.42L150.99 38.5344L153.123 36.1574L150.216 33.3878L147.721 35.42Z" fill="#C8C8C8"/>
<path d="M152.841 42.3968V46.8008L156.113 46.5573V42.6403L152.841 42.3968Z" fill="#C8C8C8"/>
<path d="M151.284 50.7794L148.015 53.8934L150.51 55.926L153.416 53.156L151.284 50.7794Z" fill="#C8C8C8"/>
<path d="M143.962 55.6575H139.34L139.596 58.7752H143.706L143.962 55.6575Z" fill="#C8C8C8"/>
<path d="M135.165 54.1738L131.896 51.0595L129.764 53.4364L132.671 56.2061L135.165 54.1738Z" fill="#C8C8C8"/>
<path d="M130.045 47.197V42.793L126.774 43.0365V46.9535L130.045 47.197Z" fill="#C8C8C8"/>
<path d="M131.602 38.8144L134.871 35.7004L132.376 33.6682L129.47 36.4378L131.602 38.8144Z" fill="#C8C8C8"/>
<path d="M141.235 46.0729C140.562 46.0729 140.019 45.5556 140.019 44.9139C140.019 44.2751 140.562 43.7549 141.235 43.7549C141.906 43.7549 142.452 44.2751 142.452 44.9139C142.452 45.5556 141.906 46.0729 141.235 46.0729ZM143.947 42.3295L140.241 41.3827L137.529 43.9697L138.523 47.4983L142.226 48.4454L144.941 45.8607L143.947 42.3295Z" fill="#C8C8C8"/>
<path d="M104.164 71.6917C104.164 66.7369 108.375 62.7231 113.569 62.7231C118.774 62.7231 122.984 66.7369 122.984 71.6917C122.984 76.6443 118.774 80.6581 113.569 80.6581C108.375 80.6581 104.164 76.6443 104.164 71.6917ZM101.62 71.6917C101.62 77.9732 106.982 83.082 113.569 83.082C120.164 83.082 125.525 77.9732 125.525 71.6917C125.525 65.4105 120.164 60.2992 113.569 60.2992C106.982 60.2992 101.62 65.4105 101.62 71.6917ZM100.473 71.6917C100.473 64.8096 106.349 59.2061 113.569 59.2061C120.794 59.2061 126.675 64.8096 126.675 71.6917C126.675 78.5764 120.794 84.1751 113.569 84.1751C106.349 84.1751 100.473 78.5764 100.473 71.6917ZM93.4219 71.6917C93.4219 82.2954 102.446 90.892 113.569 90.892C124.702 90.892 133.724 82.2954 133.724 71.6917C133.724 61.0858 124.702 52.4871 113.569 52.4871C102.446 52.4871 93.4219 61.0858 93.4219 71.6917ZM104.164 71.6917C104.164 66.7369 108.375 62.7231 113.569 62.7231C118.774 62.7231 122.984 66.7369 122.984 71.6917C122.984 76.6443 118.774 80.6581 113.569 80.6581C108.375 80.6581 104.164 76.6443 104.164 71.6917ZM101.62 71.6917C101.62 77.9732 106.982 83.082 113.569 83.082C120.164 83.082 125.525 77.9732 125.525 71.6917C125.525 65.4105 120.164 60.2992 113.569 60.2992C106.982 60.2992 101.62 65.4105 101.62 71.6917ZM104.164 71.6917C104.164 66.7369 108.375 62.7231 113.569 62.7231C118.774 62.7231 122.984 66.7369 122.984 71.6917C122.984 76.6443 118.774 80.6581 113.569 80.6581C108.375 80.6581 104.164 76.6443 104.164 71.6917ZM101.62 71.6917C101.62 77.9732 106.982 83.082 113.569 83.082C120.164 83.082 125.525 77.9732 125.525 71.6917C125.525 65.4105 120.164 60.2992 113.569 60.2992C106.982 60.2992 101.62 65.4105 101.62 71.6917Z" fill="#FFC800"/>
<path d="M111.207 52.8358H115.821L115.361 48.4474H111.666L111.207 52.8358Z" fill="#FFC800"/>
<path d="M121.417 54.2344L125.414 56.4326L127.318 52.4133L124.118 50.6527L121.417 54.2344Z" fill="#FFC800"/>
<path d="M129.526 60.3103L131.833 64.1177L135.592 61.5446L133.744 58.4954L129.526 60.3103Z" fill="#FFC800"/>
<path d="M133.361 69.4357V73.8325L137.966 73.3942V69.8736L133.361 69.4357Z" fill="#FFC800"/>
<path d="M131.893 79.1652L129.586 82.9726L133.804 84.7879L135.652 81.7383L131.893 79.1652Z" fill="#FFC800"/>
<path d="M125.516 86.8919L121.521 89.0904L124.221 92.6718L127.421 90.9111L125.516 86.8919Z" fill="#FFC800"/>
<path d="M115.94 90.5456H111.326L111.785 94.934H115.481L115.94 90.5456Z" fill="#FFC800"/>
<path d="M105.729 89.1469L101.734 86.9487L99.8291 90.968L103.029 92.7287L105.729 89.1469Z" fill="#FFC800"/>
<path d="M97.6206 83.071L95.3137 79.2635L91.5552 81.8366L93.4025 84.8862L97.6206 83.071Z" fill="#FFC800"/>
<path d="M93.7863 73.9457V69.5493L89.1809 69.9869V73.5078L93.7863 73.9457Z" fill="#FFC800"/>
<path d="M95.2541 64.2162L97.5614 60.4087L93.343 58.5935L91.4956 61.6431L95.2541 64.2162Z" fill="#FFC800"/>
<path d="M101.63 56.4895L105.627 54.2909L102.926 50.7095L99.7258 52.4702L101.63 56.4895Z" fill="#FFC800"/>
<path d="M44.1307 35.7374C44.3771 33.2113 46.7219 31.356 49.3699 31.5908C52.0183 31.8252 53.965 34.0598 53.7189 36.5859C53.4726 39.1092 51.1278 40.9641 48.4768 40.7297C45.8314 40.4953 43.8844 38.2611 44.1307 35.7374ZM48.4168 41.3653C51.4342 41.6328 54.1055 39.5187 54.3859 36.646C54.6667 33.7675 52.4476 31.2253 49.4302 30.9578C46.4155 30.6906 43.7472 32.8022 43.4664 35.6774C43.1861 38.5501 45.402 41.0981 48.4168 41.3653ZM44.1307 35.7374C44.3771 33.2113 46.7219 31.356 49.3699 31.5908C52.0183 31.8252 53.965 34.0598 53.7189 36.5859C53.4726 39.1092 51.1278 40.9641 48.4768 40.7297C45.8314 40.4953 43.8844 38.2611 44.1307 35.7374ZM48.4168 41.3653C51.4342 41.6328 54.1055 39.5187 54.3859 36.646C54.6667 33.7675 52.4476 31.2253 49.4302 30.9578C46.4155 30.6906 43.7472 32.8022 43.4664 35.6774C43.1861 38.5501 45.402 41.0981 48.4168 41.3653ZM44.1307 35.7374C44.3771 33.2113 46.7219 31.356 49.3699 31.5908C52.0183 31.8252 53.965 34.0598 53.7189 36.5859C53.4726 39.1092 51.1278 40.9641 48.4768 40.7297C45.8314 40.4953 43.8844 38.2611 44.1307 35.7374ZM43.4664 35.6774C43.1861 38.5501 45.402 41.0981 48.4168 41.3653C51.4342 41.6328 54.1055 39.5187 54.3859 36.646C54.6667 33.7675 52.4476 31.2253 49.4302 30.9578C46.4155 30.6906 43.7472 32.8022 43.4664 35.6774ZM42.6165 35.6039C42.9397 32.2864 46.032 29.8392 49.5105 30.1479C52.9886 30.4558 55.5571 33.402 55.2332 36.7195C54.91 40.037 51.8151 42.4813 48.3366 42.173C44.8607 41.8647 42.2926 38.9184 42.6165 35.6039ZM47.8526 47.1299C54.214 47.6916 59.8428 43.234 60.4353 37.1803C61.0251 31.1241 56.3528 25.7555 49.9941 25.1935C43.641 24.6314 38.0069 29.0864 37.4171 35.1427C36.8246 41.1964 41.4995 46.5679 47.8526 47.1299ZM44.1307 35.7374C44.3771 33.2113 46.7219 31.356 49.3699 31.5908C52.0183 31.8252 53.965 34.0598 53.7189 36.5859C53.4726 39.1092 51.1278 40.9641 48.4768 40.7297C45.8314 40.4953 43.8844 38.2611 44.1307 35.7374ZM48.4168 41.3653C51.4342 41.6328 54.1055 39.5187 54.3859 36.646C54.6667 33.7675 52.4476 31.2253 49.4302 30.9578C46.4155 30.6906 43.7472 32.8022 43.4664 35.6774C43.1861 38.5501 45.402 41.0981 48.4168 41.3653ZM44.1307 35.7374C44.3771 33.2113 46.7219 31.356 49.3699 31.5908C52.0183 31.8252 53.965 34.0598 53.7189 36.5859C53.4726 39.1092 51.1278 40.9641 48.4768 40.7297C45.8314 40.4953 43.8844 38.2611 44.1307 35.7374ZM48.4168 41.3653C51.4342 41.6328 54.1055 39.5187 54.3859 36.646C54.6667 33.7675 52.4476 31.2253 49.4302 30.9578C46.4155 30.6906 43.7472 32.8022 43.4664 35.6774C43.1861 38.5501 45.402 41.0981 48.4168 41.3653ZM44.1307 35.7374C44.3771 33.2113 46.7219 31.356 49.3699 31.5908C52.0183 31.8252 53.965 34.0598 53.7189 36.5859C53.4726 39.1092 51.1278 40.9641 48.4768 40.7297C45.8314 40.4953 43.8844 38.2611 44.1307 35.7374ZM48.4168 41.3653C51.4342 41.6328 54.1055 39.5187 54.3859 36.646C54.6667 33.7675 52.4476 31.2253 49.4302 30.9578C46.4155 30.6906 43.7472 32.8022 43.4664 35.6774C43.1861 38.5501 45.402 41.0981 48.4168 41.3653Z" fill="#375A64"/>
<path d="M47.7378 25.4532L52.1633 25.8452L52.2099 22.8382L48.2734 22.4895L47.7378 25.4532Z" fill="#375A64"/>
<path d="M56.0227 27.6198L58.8613 30.879L61.1255 28.7838L58.6008 25.8853L56.0227 27.6198Z" fill="#375A64"/>
<path d="M60.2733 34.7343L59.8623 38.9512L63.0176 38.9956L63.3836 35.2449L60.2733 34.7343Z" fill="#375A64"/>
<path d="M57.9996 42.6291L54.5796 45.334L56.778 47.4914L59.8199 45.0857L57.9996 42.6291Z" fill="#375A64"/>
<path d="M50.5334 46.6793L46.1079 46.2876L46.0613 49.2942L49.9974 49.6429L50.5334 46.6793Z" fill="#375A64"/>
<path d="M42.2483 44.5127L39.4096 41.2535L37.1455 43.3487L39.6701 46.2472L42.2483 44.5127Z" fill="#375A64"/>
<path d="M37.9977 37.3982L38.4087 33.1813L35.2534 33.1368L34.8875 36.8879L37.9977 37.3982Z" fill="#375A64"/>
<path d="M40.2714 29.5034L43.6918 26.7985L41.493 24.6411L38.4512 27.0468L40.2714 29.5034Z" fill="#375A64"/>
<path d="M70.1574 54.739C70.2521 51.325 73.2294 48.634 76.8092 48.7239C80.3919 48.8141 83.2165 51.6512 83.1217 55.0651C83.0274 58.4762 80.0497 61.1676 76.4673 61.0773C72.8872 60.9874 70.063 58.15 70.1574 54.739ZM62.7588 54.553C62.5567 61.8559 68.6076 67.9343 76.2717 68.1273C83.9388 68.3202 90.3182 62.5544 90.5203 55.2511C90.7228 47.9453 84.6719 41.8668 77.0048 41.6739C69.3403 41.4814 62.9613 47.2471 62.7588 54.553Z" fill="#C8C8C8"/>
<path d="M74.3223 42.1565L79.66 42.2908L79.4644 38.6832L74.7173 38.5635L74.3223 42.1565Z" fill="#C8C8C8"/>
<path d="M84.4341 44.1256L88.1089 47.8169L90.6477 45.1342L87.3793 41.8509L84.4341 44.1256Z" fill="#C8C8C8"/>
<path d="M90.1231 52.3312L89.9822 57.4174L93.7682 57.2311L93.8939 52.7076L90.1231 52.3312Z" fill="#C8C8C8"/>
<path d="M88.0567 61.9668L84.1829 65.4684L86.9982 67.8879L90.4438 64.7732L88.0567 61.9668Z" fill="#C8C8C8"/>
<path d="M79.4451 67.3878L74.1074 67.2535L74.303 70.8611L79.0501 70.9805L79.4451 67.3878Z" fill="#C8C8C8"/>
<path d="M69.333 65.4185L65.6582 61.7272L63.1194 64.4099L66.3878 67.6932L69.333 65.4185Z" fill="#C8C8C8"/>
<path d="M63.644 57.2129L63.785 52.1267L59.999 52.3131L59.8733 56.8365L63.644 57.2129Z" fill="#C8C8C8"/>
<path d="M65.7106 47.5774L69.5845 44.0757L66.7691 41.6566L63.3235 44.771L65.7106 47.5774Z" fill="#C8C8C8"/>
<path d="M76.8448 56.205C76.012 56.1838 75.3581 55.5272 75.3802 54.7337C75.402 53.9434 76.0911 53.317 76.9243 53.3381C77.7536 53.3588 78.411 54.0188 78.3889 54.8094C78.3667 55.6029 77.6741 56.2261 76.8448 56.205ZM80.3279 51.659L75.7764 50.3726L72.333 53.4881L73.4412 57.8837L77.9893 59.1701L81.4361 56.0579L80.3279 51.659Z" fill="#C8C8C8"/>
</g>
<mask id="mask3_239_11" style="mask-type:luminance" maskUnits="userSpaceOnUse" x="0" y="0" width="191" height="182">
<path d="M0 1.85966e-05H191V182H0V1.85966e-05Z" fill="white"/>
</mask>
<g mask="url(#mask3_239_11)">
<path d="M119.885 159.621L122.013 145.677L122.63 145.942L123.615 146.369L127.883 148.205L131.711 149.852L134.229 150.936L138.054 152.584L140.153 153.487C141.805 154.34 141.445 156.69 139.608 157.06L138.722 157.175L138.719 157.175L137.325 157.356L133.168 157.895L130.429 158.25L126.268 158.792L124.528 159.017L119.885 159.621Z" fill="#FFC800"/>
<mask id="mask4_239_11" style="mask-type:luminance" maskUnits="userSpaceOnUse" x="120" y="146" width="20" height="14">
<path d="M120.182 146.067H139.338V159.44H120.182V146.067Z" fill="white"/>
</mask>
<g mask="url(#mask4_239_11)">
<g opacity="0.100006">
<path d="M122.735 146.067C122.735 146.067 122.426 146.873 121.955 147.573C120.656 149.5 119.717 153.45 120.425 158.003C120.484 158.387 120.552 159.069 120.74 159.439L121.629 159.383C121.629 159.383 125.776 150.709 139.338 153.122L138.055 152.571L134.231 150.926L131.712 149.842L127.885 148.194L122.735 146.067Z" fill="black"/>
</g>
</g>
<path d="M133.167 157.895L134.229 150.936L138.054 152.583L137.326 157.357L133.167 157.895Z" fill="#ECECEC"/>
<path d="M126.268 158.791L127.883 148.205L131.711 149.852L130.429 158.251L126.268 158.791Z" fill="#ECECEC"/>
<path d="M82.5578 159.273H68.3142L68.4934 158.676L68.7837 157.722L70.029 153.591L71.1467 149.887L71.8821 147.449L72.9998 143.747L73.6129 141.715C74.2367 140.096 76.638 140.096 77.2618 141.715L77.5005 142.503V142.506L77.8753 143.747L78.9903 147.449L79.7253 149.887L80.843 153.591L81.3098 155.14L82.5578 159.273Z" fill="#FFC800"/>
<path d="M83.0676 162.796H64.3477L67.3322 155.751H86.0521L83.0676 162.796Z" fill="#FFC800"/>
<path d="M78.9901 147.449H71.8818L72.9996 143.747H77.875L78.9901 147.449Z" fill="#ECECEC"/>
<path d="M80.8432 153.591H70.0288L71.1469 149.887H79.7255L80.8432 153.591Z" fill="#ECECEC"/>
<path d="M68.1155 158.329C69.2706 158.843 70.493 159.161 71.7254 159.376C72.9604 159.583 74.2126 159.667 75.464 159.647C76.0886 159.608 76.7162 159.604 77.337 159.511C77.6475 159.473 77.9619 159.453 78.2706 159.399C78.5788 159.342 78.8883 159.289 79.1984 159.237C79.3528 159.21 79.5094 159.189 79.663 159.155L80.1214 159.046L81.0427 158.834C81.6536 158.677 82.2537 158.483 82.8737 158.329C82.2995 158.589 81.7193 158.849 81.1253 159.076L80.2161 159.373L79.7588 159.517C79.6053 159.561 79.4483 159.592 79.2928 159.631C78.9811 159.705 78.6686 159.777 78.355 159.845C78.041 159.912 77.7201 159.945 77.4027 159.996C76.7674 160.106 76.1199 160.115 75.477 160.164C74.1862 160.174 72.8905 160.065 71.6375 159.769C70.3903 159.474 69.1629 159.032 68.1155 158.329Z" fill="#1A2E35"/>
<mask id="mask5_239_11" style="mask-type:luminance" maskUnits="userSpaceOnUse" x="68" y="142" width="15" height="18">
<path d="M68.6038 142.506H82.2576V159.858H68.6038V142.506Z" fill="white"/>
</mask>
<g mask="url(#mask5_239_11)">
<g opacity="0.100006">
<path d="M68.6035 158.563C68.6035 158.563 69.4531 158.733 70.2182 159.064C72.3265 159.977 76.4078 160.282 80.8638 159.008C81.2405 158.9 81.9128 158.745 82.2573 158.523L82.0778 157.722C82.0778 157.722 72.8261 155.158 73.3606 142.506L72.9862 143.747L71.8711 147.449L71.1358 149.887L70.0181 153.592L68.6035 158.563Z" fill="black"/>
</g>
</g>
<path d="M116.011 159.594L118.807 141.268L125.957 145.242L123.161 163.568L116.011 159.594Z" fill="#FFC800"/>
<path d="M123.135 152.827C122.734 156.213 121.447 158.855 120.26 158.727C119.072 158.6 118.434 155.752 118.834 152.365C119.234 148.98 120.521 146.338 121.709 146.465C122.896 146.592 123.535 149.441 123.135 152.827Z" fill="#1A2E35"/>
</g>
<mask id="mask6_239_11" style="mask-type:luminance" maskUnits="userSpaceOnUse" x="0" y="0" width="191" height="182">
<path d="M0 1.85966e-05H191V182H0V1.85966e-05Z" fill="white"/>
</mask>
<g mask="url(#mask6_239_11)">
<path d="M128.108 165.092C128.77 165.301 147.682 165.249 148.403 164.813C148.675 164.65 148.828 162.023 148.918 158.847C148.938 158.16 148.952 157.455 148.964 156.732C148.979 155.88 148.99 155.017 148.996 154.179C149.019 150.416 148.964 147.101 148.964 147.101H136.652L136.658 154.179L136.661 156.732L136.725 158.847C136.725 158.847 129.494 161.954 128.759 162.514C128.027 163.071 127.448 164.885 128.108 165.092Z" fill="#ED776A"/>
<path d="M128.108 165.092C128.77 165.301 147.682 165.249 148.403 164.813C148.675 164.65 148.828 162.023 148.918 158.847C148.938 158.16 148.952 157.455 148.964 156.732C148.979 155.88 148.99 155.017 148.996 154.179H136.658L136.661 156.732L136.725 158.847C136.725 158.847 129.494 161.954 128.759 162.514C128.027 163.071 127.448 164.885 128.108 165.092Z" fill="white"/>
<path d="M128.051 165.118C128.482 165.253 136.537 165.281 142.402 165.165C143.759 165.138 145.001 165.102 146.002 165.061C147.382 165 148.308 164.928 148.459 164.837C148.791 164.633 148.95 160.779 149.026 156.712H136.653L136.717 158.838C136.717 158.838 129.445 161.961 128.705 162.524C127.97 163.087 127.388 164.906 128.051 165.118Z" fill="#FFC800"/>
<path d="M128.322 164.393C131.509 164.31 144.374 164.26 147.532 164.409C147.558 164.41 147.558 164.426 147.532 164.428C144.374 164.576 131.509 164.526 128.322 164.443C128.254 164.441 128.254 164.395 128.322 164.393Z" fill="#1A2E35"/>
<path d="M136.264 158.164C137.518 157.938 139.053 158.117 140.014 158.966C140.051 158.999 140.002 159.049 139.961 159.037C138.722 158.669 137.566 158.433 136.27 158.315C136.178 158.307 136.175 158.181 136.264 158.164Z" fill="#1A2E35"/>
<path d="M135.36 158.687C136.614 158.461 138.149 158.64 139.11 159.489C139.147 159.522 139.098 159.572 139.057 159.559C137.818 159.191 136.662 158.956 135.366 158.838C135.274 158.83 135.271 158.703 135.36 158.687Z" fill="#1A2E35"/>
<path d="M134.456 159.21C135.71 158.983 137.245 159.162 138.206 160.011C138.243 160.044 138.194 160.094 138.153 160.082C136.914 159.714 135.758 159.478 134.462 159.361C134.37 159.353 134.367 159.226 134.456 159.21Z" fill="#1A2E35"/>
<path d="M133.552 159.732C134.806 159.506 136.341 159.685 137.302 160.534C137.34 160.567 137.29 160.617 137.249 160.604C136.011 160.236 134.854 160.001 133.558 159.883C133.466 159.875 133.463 159.748 133.552 159.732Z" fill="#1A2E35"/>
<path d="M153.071 97.1062C153.071 97.1062 149.743 128.466 149.665 128.863C149.654 128.915 149.63 129.519 149.598 130.504C149.419 135.902 149.117 158.075 149.117 158.075H135.54C135.54 158.075 136.286 132.798 136.795 128.146C137.443 122.213 141.529 97.1062 141.529 97.1062H153.071Z" fill="#1A2E35"/>
<path d="M148.046 129.969C148.465 123.174 149.089 116.391 149.934 109.633C150.411 105.822 150.984 102.025 151.555 98.2271C151.56 98.1943 151.615 98.1954 151.61 98.2285C150.559 104.988 149.814 111.801 149.174 118.606C148.533 125.404 148.086 132.215 147.794 139.033C147.628 142.897 147.503 151.384 147.372 155.249C147.37 155.341 147.22 155.338 147.222 155.245C147.414 148.358 147.622 136.847 148.046 129.969Z" fill="#375A64"/>
<path d="M136.257 155.965C136.612 155.921 136.998 155.935 137.359 155.923C137.767 155.91 138.175 155.907 138.583 155.892C139.369 155.863 140.155 155.844 140.942 155.832C142.526 155.807 144.115 155.816 145.699 155.863C146.135 155.876 146.571 155.892 147.007 155.908C147.471 155.924 147.937 155.964 148.402 155.962C148.437 155.962 148.436 156.002 148.4 156.002C147.602 155.999 146.795 156.067 145.996 156.095C145.21 156.122 144.425 156.136 143.638 156.146C142.054 156.168 140.464 156.154 138.881 156.098C138.445 156.083 138.009 156.077 137.573 156.064C137.34 156.058 137.108 156.045 136.875 156.036C136.668 156.029 136.461 156.042 136.255 156.017C136.219 156.012 136.222 155.97 136.257 155.965Z" fill="#375A64"/>
<path d="M153.071 97.1062C153.071 97.1062 149.743 128.466 149.665 128.863C149.654 128.915 149.63 129.519 149.598 130.504L143.198 97.1062H153.071Z" fill="#375A64"/>
<path d="M149.444 165.171C150.127 165.31 168.918 163.277 169.584 162.768C169.835 162.578 169.684 159.951 169.408 156.784C169.348 156.099 166.357 145.105 166.357 145.105L153.685 146.394L157.288 158.061C157.288 158.061 150.46 161.907 149.794 162.54C149.131 163.171 148.764 165.034 149.444 165.171Z" fill="#ED776A"/>
<path d="M169.585 162.769C168.919 163.276 150.127 165.309 149.443 165.172C148.763 165.035 149.129 163.172 149.795 162.541C150.461 161.907 157.289 158.06 157.289 158.06L156.113 154.252L168.353 152.549C168.893 154.598 169.385 156.525 169.407 156.783C169.685 159.952 169.833 162.579 169.585 162.769Z" fill="white"/>
<path d="M149.39 165.204C149.834 165.293 157.844 164.477 163.66 163.747C165.006 163.578 166.236 163.412 167.226 163.266C168.591 163.061 169.503 162.893 169.642 162.787C169.89 162.595 169.771 159.896 169.407 156.784C169.322 156.048 169.093 155.249 168.901 154.652L156.72 156.219L157.279 158.053C157.279 158.053 150.412 161.92 149.741 162.557C149.076 163.193 148.707 165.062 149.39 165.204Z" fill="#FFC800"/>
<path d="M149.576 164.454C152.735 164.037 165.516 162.641 168.672 162.458C168.698 162.456 168.7 162.473 168.674 162.476C165.552 162.955 152.76 164.252 149.582 164.504C149.515 164.509 149.509 164.463 149.576 164.454Z" fill="#1A2E35"/>
<path d="M156.752 157.431C157.972 157.075 159.518 157.093 160.571 157.835C160.612 157.864 160.569 157.92 160.527 157.912C159.253 157.675 158.076 157.562 156.775 157.581C156.683 157.582 156.665 157.457 156.752 157.431Z" fill="#1A2E35"/>
<path d="M155.914 158.046C157.134 157.689 158.68 157.706 159.734 158.45C159.774 158.478 159.73 158.533 159.689 158.525C158.415 158.289 157.239 158.176 155.937 158.195C155.845 158.196 155.826 158.071 155.914 158.046Z" fill="#1A2E35"/>
<path d="M155.076 158.66C156.296 158.303 157.842 158.32 158.895 159.064C158.936 159.092 158.892 159.147 158.85 159.139C157.577 158.903 156.4 158.79 155.098 158.809C155.006 158.81 154.988 158.685 155.076 158.66Z" fill="#1A2E35"/>
<path d="M154.237 159.273C155.457 158.917 157.003 158.934 158.057 159.678C158.098 159.706 158.054 159.761 158.012 159.753C156.739 159.517 155.562 159.404 154.261 159.423C154.168 159.424 154.15 159.299 154.237 159.273Z" fill="#1A2E35"/>
<path d="M141.362 96.9331C141.362 96.9331 141.956 100.299 143.879 102.601C144.339 103.152 145.751 103.665 146.482 104.173C146.482 104.173 148.902 128.816 149.233 132.446C149.687 137.422 155.733 157.848 155.733 157.848L169.734 155.563C169.734 155.563 163.874 134.689 162.675 129.885C162.398 128.779 160.224 106.071 160.292 105.584C161.107 99.7901 158.206 96.1894 158.206 96.1894L141.362 96.9331Z" fill="#1A2E35"/>
<path d="M152.52 97.4568C152.775 98.3668 153.4 99.1636 154.181 99.7303C155.059 100.367 156.114 100.633 157.198 100.715C157.381 100.729 157.395 100.992 157.204 100.993C154.99 101.006 152.753 99.6579 152.429 97.4706C152.421 97.4207 152.506 97.4094 152.52 97.4568Z" fill="#375A64"/>
<path d="M143.616 102.505C144.43 102.782 145.171 103.23 145.902 103.662C146.662 104.109 147.364 104.635 148.098 105.119C148.126 105.137 148.102 105.181 148.071 105.164C147.302 104.742 146.501 104.376 145.739 103.94C145 103.517 144.232 103.107 143.582 102.562C143.557 102.541 143.582 102.494 143.616 102.505Z" fill="#375A64"/>
<path d="M143.304 98.1079C143.423 98.5909 143.569 99.0681 143.703 99.5475C143.828 99.9974 143.927 100.458 144.075 100.902C144.218 101.332 144.431 101.723 144.798 102.018C144.993 102.176 145.206 102.314 145.413 102.457C145.524 102.534 145.644 102.607 145.76 102.686C145.742 102.622 145.728 102.557 145.712 102.491C145.669 102.308 145.628 102.124 145.586 101.941C145.494 101.534 145.405 101.125 145.32 100.717C145.151 99.9141 144.993 99.102 144.777 98.3096C144.768 98.2772 144.82 98.2626 144.83 98.2946C145.079 99.0787 145.35 99.8533 145.572 100.645C145.682 101.034 146.097 102.956 146.117 103.093C146.139 103.234 146.158 103.376 146.17 103.517C146.182 103.657 146.219 103.813 146.191 103.952C146.184 103.988 146.139 103.984 146.122 103.961C146.122 103.961 146.121 103.962 146.12 103.962C146.04 103.842 146.014 103.682 145.971 103.547C145.927 103.411 145.888 103.272 145.855 103.133C145.843 103.082 145.833 103.03 145.823 102.979C145.617 102.872 145.424 102.726 145.23 102.605C145.022 102.475 144.809 102.348 144.611 102.204C144.232 101.926 143.986 101.577 143.829 101.148C143.666 100.704 143.6 100.23 143.523 99.7667C143.433 99.2192 143.359 98.6677 143.251 98.1228C143.245 98.0904 143.296 98.0748 143.304 98.1079Z" fill="#375A64"/>
<path d="M156.326 155.34C156.666 155.233 160.131 154.525 160.902 154.372C162.453 154.065 167.799 153.252 168.255 153.167C168.289 153.161 168.296 153.2 168.261 153.206C167.477 153.346 165.164 153.867 163.611 154.199C162.066 154.53 156.542 155.38 156.334 155.392C156.298 155.393 156.293 155.351 156.326 155.34Z" fill="#375A64"/>
<path d="M163.31 141.184C162.323 137.538 161.249 133.903 160.563 130.192C160.218 128.328 160.024 126.446 159.866 124.561C159.708 122.668 159.556 120.776 159.4 118.884C159.244 116.987 159.088 115.09 158.928 113.194C158.767 111.278 158.587 109.36 158.57 107.437C158.543 104.32 159.137 100.935 157.73 97.9965C157.57 97.6616 157.379 97.341 157.169 97.0323C157.127 96.9711 157.029 97.0286 157.067 97.092C158.797 99.9432 158.345 103.38 158.28 106.528C158.241 108.391 158.374 110.25 158.523 112.106C158.676 114.003 158.831 115.9 158.989 117.797C159.146 119.694 159.304 121.591 159.461 123.487C159.616 125.353 159.762 127.222 160.03 129.076C160.56 132.744 161.611 136.326 162.588 139.902C163.593 143.582 164.583 147.273 165.702 150.923C165.841 151.38 165.975 151.838 166.11 152.295C166.122 152.336 166.186 152.317 166.176 152.277C165.257 148.571 164.308 144.871 163.31 141.184Z" fill="#375A64"/>
<path d="M143.631 66.1607C144.664 65.1 146.4 64.8762 148.078 65.2213C149.755 65.5663 151.749 66.3817 151.89 68.9424C152.004 71.0212 151.261 73.0309 151.231 75.3466C151.202 77.6624 153.969 83.3674 149.312 86.0213C145.129 88.4048 136.778 85.9532 136.611 80.8565C136.478 76.8165 141.802 73.1987 142.385 71.6124C142.968 70.0261 142.499 67.3234 143.631 66.1607Z" fill="#1A2E35"/>
<path d="M142.834 68.4222C142.781 69.5765 142.578 70.7405 142.032 71.8198C141.898 72.0891 141.708 72.3487 141.496 72.5747C141.287 72.8037 141.067 73.0181 140.849 73.2321C140.405 73.6551 139.965 74.0751 139.551 74.5123C138.719 75.3823 137.99 76.329 137.472 77.3701C136.954 78.4096 136.667 79.5417 136.608 80.697C136.562 80.1186 136.6 79.5355 136.696 78.9593C136.802 78.3849 136.98 77.8203 137.215 77.2751C137.684 76.1801 138.43 75.1952 139.27 74.3055C139.694 73.8615 140.145 73.4403 140.591 73.0224C141.039 72.602 141.491 72.2045 141.774 71.7055C142.07 71.2094 142.275 70.6637 142.439 70.1108C142.615 69.5593 142.734 68.993 142.834 68.4222Z" fill="#1A2E35"/>
<path d="M151.74 70.6837C151.687 71.8612 151.585 73.0351 151.599 74.2058C151.613 74.7904 151.637 75.3742 151.73 75.9501C151.814 76.5186 151.99 77.0905 152.136 77.6681C152.28 78.2469 152.411 78.8308 152.503 79.4212C152.585 80.0127 152.63 80.6107 152.596 81.208C152.552 81.805 152.428 82.3972 152.201 82.9596C151.945 83.5132 151.57 84.0156 151.095 84.428C151.508 83.9661 151.84 83.4605 152.032 82.9061C152.217 82.3514 152.306 81.7762 152.316 81.1968C152.317 80.0352 152.077 78.8803 151.78 77.734C151.642 77.1585 151.466 76.586 151.387 75.9828C151.314 75.388 151.292 74.7918 151.319 74.1999C151.364 73.0148 151.537 71.8463 151.74 70.6837Z" fill="#1A2E35"/>
<path d="M147.815 78.4571C147.312 80.4219 141.323 98.8316 140.137 99.0864C136.646 99.8362 132.452 100.386 132.514 97.657C132.612 93.3738 141.062 82.0982 145.11 78.3501C147.775 75.8825 148.312 76.518 147.815 78.4571Z" fill="#ED776A"/>
<path d="M139.825 83.562L146.043 84.9761C146.043 84.9761 147.826 79.2271 148.116 77.7438C148.405 76.2605 147.187 76.2722 145.304 78.0314C143.422 79.7906 139.825 83.562 139.825 83.562Z" fill="#ECECEC"/>
<path d="M140.783 82.8871C140.74 82.878 140.72 82.9035 140.762 82.9137C142.884 83.4349 145.361 83.895 146.274 83.9649C146.288 83.966 146.29 83.9467 146.278 83.9427C145.399 83.6628 141.254 82.9883 140.783 82.8871Z" fill="#1A2E35"/>
<path d="M141.897 90.5614L140.741 99.6395C140.741 99.6395 156.219 99.5085 160.054 99.1641C160.054 99.1641 156.501 82.3215 152.265 78.1417C150.146 76.0509 147.725 76.2656 146.216 77.7944C145.834 78.1814 141.313 84.1637 140.878 86.4201C140.498 88.4112 141.897 90.5614 141.897 90.5614Z" fill="#ECECEC"/>
<path d="M140.739 99.6393L141.897 90.5612C141.897 90.5612 140.499 88.4121 140.878 86.4207C141.314 84.1635 145.833 78.1805 146.216 77.7946C146.36 77.6494 146.512 77.5125 146.674 77.3924L144.692 82.8273L150.571 76.964C150.953 77.1168 151.485 77.3756 152.264 78.1433C156.501 82.3213 160.054 99.1661 160.054 99.1661C156.218 99.5105 140.739 99.6393 140.739 99.6393Z" fill="#FFC800"/>
<path d="M158.869 94.2497L141.361 94.764L141.544 93.3164L158.49 92.8225C158.625 93.3164 158.751 93.7933 158.869 94.2497Z" fill="#ECECEC"/>
<path d="M159.504 96.764L141.034 97.303L141.221 95.8554L159.147 95.3323C159.282 95.851 159.4 96.3323 159.504 96.764Z" fill="#ECECEC"/>
<path d="M149.779 77.5389C149.688 77.8236 148.105 79.6075 146.722 79.4558C146.272 79.4055 146.449 77.0515 146.449 77.0515L146.421 76.8746L146.022 74.4016L149.156 72.7596L149.607 72.5445C149.607 72.5445 149.669 73.2281 149.738 74.0798C149.741 74.1192 149.744 74.1588 149.747 74.2011C149.753 74.2491 149.758 74.2942 149.761 74.3394C149.773 74.4668 149.785 74.5964 149.793 74.7259C149.801 74.8246 149.808 74.9203 149.811 75.0241C149.818 75.1282 149.821 75.2294 149.828 75.3335C149.867 76.3603 149.816 77.4177 149.779 77.5389Z" fill="#ED776A"/>
<path d="M149.738 74.0797C148.867 75.9714 147.186 76.6568 146.42 76.8748L146.022 74.4014L149.156 72.7594L149.607 72.5443C149.607 72.5443 149.669 73.2279 149.738 74.0797Z" fill="#1A2E35"/>
<path d="M142.374 70.2564C141.524 74.572 144.141 75.5446 145.118 75.7182C146.005 75.8759 149.045 76.3054 150.359 72.0961C151.672 67.8872 149.835 66.1461 147.827 65.6835C145.819 65.2209 143.224 65.9405 142.374 70.2564Z" fill="#ED776A"/>
<path d="M143.579 69.1835C143.687 69.1988 143.789 69.1955 143.897 69.2003C144.019 69.2054 144.115 69.2214 144.224 69.1584C144.283 69.1242 144.305 69.0314 144.276 68.9739C144.208 68.841 144.06 68.7991 143.914 68.7875C143.755 68.7744 143.629 68.8035 143.497 68.889C143.369 68.972 143.437 69.1635 143.579 69.1835Z" fill="#1A2E35"/>
<path d="M146.69 69.8117C146.585 69.783 146.493 69.74 146.393 69.7014C146.28 69.6577 146.185 69.6341 146.113 69.534C146.075 69.4797 146.095 69.3862 146.146 69.3458C146.266 69.2512 146.419 69.2719 146.557 69.3189C146.708 69.3702 146.81 69.4463 146.892 69.5762C146.972 69.7018 146.828 69.8496 146.69 69.8117Z" fill="#1A2E35"/>
<path d="M145.795 70.8088C145.8 70.7979 145.816 70.827 145.814 70.839C145.745 71.131 145.718 71.476 145.978 71.6242C145.986 71.6289 145.982 71.6435 145.972 71.6402C145.641 71.5328 145.681 71.0749 145.795 70.8088Z" fill="#1A2E35"/>
<path d="M146.132 70.5518C146.634 70.6057 146.484 71.5605 146.018 71.5102C145.56 71.4611 145.71 70.5067 146.132 70.5518Z" fill="#1A2E35"/>
<path d="M146.32 70.6306C146.399 70.6972 146.47 70.8046 146.574 70.8293C146.694 70.8584 146.802 70.7718 146.897 70.687C146.907 70.6783 146.914 70.6877 146.912 70.7005C146.886 70.8839 146.783 71.0608 146.573 71.0586C146.381 71.0568 146.272 70.8755 146.253 70.6848C146.249 70.6495 146.288 70.6036 146.32 70.6306Z" fill="#1A2E35"/>
<path d="M144.011 70.4829C144.01 70.4713 143.984 70.4935 143.983 70.5055C143.948 70.8029 143.857 71.1381 143.561 71.1985C143.552 71.2003 143.551 71.2153 143.561 71.2153C143.911 71.2156 144.028 70.7697 144.011 70.4829Z" fill="#1A2E35"/>
<path d="M143.779 70.1361C143.285 70.0324 143.103 70.9821 143.562 71.0782C144.012 71.1728 144.193 70.2231 143.779 70.1361Z" fill="#1A2E35"/>
<path d="M143.56 70.1624C143.472 70.1992 143.376 70.2771 143.281 70.2665C143.17 70.2545 143.109 70.138 143.059 70.027C143.054 70.0157 143.044 70.0223 143.041 70.035C143.001 70.2156 143.028 70.4154 143.205 70.482C143.365 70.5428 143.518 70.4085 143.598 70.2356C143.613 70.2036 143.595 70.1475 143.56 70.1624Z" fill="#1A2E35"/>
<path d="M145.411 73.2147C145.339 73.2875 145.268 73.3865 145.155 73.3996C145.046 73.4127 144.916 73.3705 144.815 73.337C144.804 73.3337 144.795 73.3443 144.801 73.353C144.888 73.4648 145.062 73.5299 145.206 73.5004C145.347 73.4717 145.413 73.3519 145.442 73.2271C145.446 73.2096 145.422 73.2041 145.411 73.2147Z" fill="#1A2E35"/>
<path d="M144.205 71.8974C144.205 71.8974 144.066 72.3284 144.03 72.5363C144.027 72.5559 144.078 72.573 144.152 72.5887C144.155 72.5901 144.157 72.592 144.16 72.5901C144.535 72.707 144.945 72.6404 145.231 72.3765C145.249 72.3586 145.225 72.3328 145.203 72.343C144.881 72.4995 144.554 72.5024 144.212 72.4551C144.206 72.3954 144.475 71.7245 144.441 71.7169C144.324 71.6889 144.075 71.73 143.927 71.7475C144.189 70.8418 144.602 69.9835 144.848 69.0779C144.856 69.0455 144.809 69.028 144.794 69.0557C144.294 69.926 143.969 70.962 143.673 71.8905C143.635 72.0059 144.111 71.9193 144.205 71.8974Z" fill="#1A2E35"/>
<path d="M144.191 72.5579C144.191 72.5579 144.352 72.8702 144.625 73.0209C144.725 73.077 144.839 73.1119 144.966 73.1025C145.229 73.0839 145.277 72.8666 145.268 72.6715C145.261 72.5113 145.211 72.3654 145.211 72.3654C145.211 72.3654 144.784 72.6267 144.191 72.5579Z" fill="#1A2E35"/>
<path d="M144.625 73.0211C144.726 73.0768 144.839 73.1121 144.967 73.1027C145.229 73.0841 145.277 72.8668 145.268 72.6717C144.995 72.6502 144.696 72.7769 144.625 73.0211Z" fill="#FF9CBF"/>
<path d="M149.574 72.299C149.574 72.299 150.717 71.0297 151.331 71.4312C151.945 71.8327 150.986 73.739 150.196 73.937C149.405 74.1354 149.198 73.4416 149.198 73.4416L149.574 72.299Z" fill="#ED776A"/>
<path d="M151.042 71.9711C151.054 71.9711 151.055 71.9878 151.044 71.9911C150.488 72.1465 150.157 72.5924 149.909 73.0634C150.087 72.8902 150.315 72.8072 150.561 73.0128C150.574 73.0234 150.558 73.043 150.543 73.0387C150.329 72.9732 150.168 72.9946 150.002 73.1475C149.885 73.256 149.798 73.3987 149.709 73.5283C149.679 73.5716 149.595 73.5392 149.619 73.4882C149.62 73.4846 149.622 73.4806 149.624 73.4769C149.679 72.8261 150.303 71.9674 151.042 71.9711Z" fill="#1A2E35"/>
<path d="M150.184 71.9396C149.695 71.8442 148.604 70.3755 148.905 68.099C148.905 68.099 148.783 70.1611 148.899 70.4817C149.015 70.8021 148.29 69.6558 148.506 67.8162C148.506 67.8162 147.331 68.4037 146.388 68.5223C145.443 68.641 144.889 68.5573 144.834 68.4859C144.778 68.4146 146.174 68.1955 146.595 67.8478C146.595 67.8478 144.02 68.5886 142.895 68.518C142.764 68.51 142.989 65.966 144.871 65.1298C146.752 64.2934 149.304 65.8207 149.936 66.5949C149.936 66.5949 150.779 66.829 151.532 68.1692C152.286 69.5095 150.711 72.0418 150.184 71.9396Z" fill="#1A2E35"/>
<path d="M142.843 67.3762C142.843 67.3762 144.512 62.6686 148.928 64.0536C153.345 65.4387 151.754 70.1703 151.754 70.1703L142.843 67.3762Z" fill="#FFC800"/>
<path d="M151.971 70.6085L142.396 67.6066L142.627 66.9379L152.201 69.9399L151.971 70.6085Z" fill="#FFC800"/>
<path d="M147.343 68.4165L145.35 67.7915L147.416 63.3118L149.41 63.9368L147.343 68.4165Z" fill="#FFC800"/>
<mask id="mask7_239_11" style="mask-type:luminance" maskUnits="userSpaceOnUse" x="145" y="63" width="5" height="6">
<path d="M145.35 63.312H149.41V68.4164H145.35V63.312Z" fill="white"/>
</mask>
<g mask="url(#mask7_239_11)">
<g opacity="0.100006">
<path d="M147.343 68.4167L145.349 67.7918L147.416 63.312L149.41 63.937L147.343 68.4167Z" fill="black"/>
</g>
</g>
<path d="M149.011 98.7375L140.1 102.216L130.588 80.0894C129.994 78.7077 130.688 77.1286 132.138 76.5626L135.798 75.1343C137.248 74.5683 138.905 75.2293 139.499 76.611L149.011 98.7375Z" fill="#375A64"/>
<path d="M148.535 101.575L142.529 103.919L141.553 101.648L147.558 99.3045L148.535 101.575Z" fill="#375A64"/>
<path d="M156.989 126.81L155.083 127.554L144.579 103.119L146.485 102.375L156.989 126.81Z" fill="#ECECEC"/>
<path d="M158.881 128.578C158.881 128.578 159.327 132.793 159.201 132.842L158.57 133.089L158.558 133.093L157.928 133.339C157.802 133.389 155.016 130.086 155.016 130.086L155.082 127.56L156.974 126.822L158.881 128.578Z" fill="#ECECEC"/>
<path d="M141.475 98.8797L139.919 99.4872L131.735 80.4514L133.292 79.8439L141.475 98.8797Z" fill="#1A2E35"/>
<path d="M144.364 97.7521L142.807 98.3596L134.624 79.3239L136.181 78.7164L144.364 97.7521Z" fill="#1A2E35"/>
<path d="M147.252 96.6245L145.696 97.2321L137.513 78.1963L139.069 77.5888L147.252 96.6245Z" fill="#1A2E35"/>
<path d="M145.591 88.7172C146.186 89.2556 145.812 89.9828 145.812 89.9828C145.812 89.9828 146.458 90.0898 146.827 90.5754C147.25 91.132 146.519 92.007 146.519 92.007C146.519 92.007 147.149 92.2444 147.484 92.7947C147.833 93.3658 147.228 94.3497 147.228 94.3497C147.228 94.3497 147.687 94.8775 147.62 95.5513C147.503 96.7037 145.842 97.4932 144.792 98.0054C143.742 98.5172 140.26 99.0315 139.607 99.1938L136.101 92.7991C136.101 92.7991 140.125 89.2268 141.449 88.7922C142.565 88.4256 144.923 88.113 145.591 88.7172Z" fill="#ED776A"/>
<path d="M136.576 92.3842C135.374 93.2618 131.77 96.6492 132.617 98.3727C133.464 100.096 136.362 99.9222 140.384 99.041L136.576 92.3842Z" fill="#ED776A"/>
<path d="M145.71 89.903C144.426 90.0213 143.248 90.4949 142.044 90.904C142.017 90.9131 142.033 90.9532 142.059 90.9437C143.252 90.5236 144.516 90.3344 145.723 89.9602C145.757 89.95 145.745 89.8997 145.71 89.903Z" fill="#1A2E35"/>
<path d="M146.452 91.9342C146.162 91.9695 145.886 92.0951 145.618 92.2006C145.33 92.3146 145.044 92.4329 144.76 92.5555C144.192 92.8012 143.629 93.0589 143.075 93.3323C143.05 93.3443 143.064 93.3829 143.09 93.3716C143.657 93.1281 144.228 92.8926 144.805 92.6716C145.094 92.5614 145.384 92.4532 145.675 92.347C145.945 92.2479 146.239 92.1653 146.481 92.0106C146.517 91.9877 146.495 91.9287 146.452 91.9342Z" fill="#1A2E35"/>
<path d="M147.204 94.3591C146.951 94.3799 146.693 94.5342 146.467 94.6376C146.21 94.7544 145.953 94.8698 145.695 94.9841C145.179 95.2127 144.664 95.441 144.14 95.6521C144.114 95.6626 144.129 95.7019 144.155 95.6917C144.689 95.4795 145.225 95.2746 145.756 95.058C146.017 94.9517 146.277 94.844 146.537 94.7348C146.758 94.6423 147.045 94.5502 147.217 94.3832C147.227 94.3741 147.217 94.3581 147.204 94.3591Z" fill="#1A2E35"/>
<path d="M136.418 92.4415C135.983 92.7742 135.624 93.0155 135.224 93.4093C135.131 93.5018 135.036 93.5943 134.943 93.6874C134.902 93.7115 134.861 93.7369 134.821 93.7621C134.65 93.8687 134.482 93.9808 134.322 94.102C134.013 94.3386 133.726 94.5989 133.451 94.8712C133.432 94.8908 133.463 94.9189 133.484 94.9003C133.772 94.6371 134.086 94.4002 134.413 94.1814C134.455 94.153 134.499 94.1264 134.542 94.098C134.385 94.264 134.232 94.4333 134.09 94.6095C133.71 95.0812 133.355 95.5548 133.038 96.068C133.024 96.0913 133.062 96.1113 133.077 96.0884C133.662 95.1922 136.218 92.7953 136.496 92.5084C136.782 92.2125 136.631 92.2791 136.418 92.4415Z" fill="#1A2E35"/>
<path d="M152.993 78.3268C157.341 82.1346 161.047 89.5136 161.055 91.3296C161.064 93.6294 157.148 104.659 155.179 106.615C154.42 107.368 147.693 102.047 148.511 101.248C149.9 99.8905 153.776 91.0402 153.813 90.424C153.837 90.0371 151.855 83.9979 150.546 80.6564C148.749 76.0653 151.677 77.1733 152.993 78.3268Z" fill="#ED776A"/>
<path d="M141.406 110.582C142.034 111.038 142.743 110.965 142.743 110.965C142.743 110.965 142.706 111.685 143.187 112.203C143.738 112.796 144.955 112.232 144.955 112.232C144.955 112.232 145.077 112.967 145.642 113.466C146.229 113.983 147.542 113.58 147.542 113.58C147.542 113.58 148.05 114.206 148.863 114.302C150.253 114.466 151.602 112.881 152.471 111.882C153.34 110.883 154.823 107.275 155.179 106.615L148.511 101.247C148.511 101.247 143.281 104.671 142.434 105.984C141.721 107.089 140.512 109.932 141.406 110.582Z" fill="#ED776A"/>
<path d="M142.73 110.931C143.193 109.582 143.993 108.341 144.778 107.151C144.796 107.125 144.839 107.151 144.822 107.178C144.026 108.352 143.539 109.757 142.794 110.96C142.773 110.993 142.717 110.968 142.73 110.931Z" fill="#1A2E35"/>
<path d="M144.886 112.141C145 111.839 145.219 111.574 145.41 111.313C145.617 111.032 145.829 110.755 146.045 110.481C146.478 109.933 146.924 109.393 147.386 108.867C147.407 108.843 147.449 108.868 147.429 108.893C146.999 109.441 146.577 109.995 146.171 110.558C145.968 110.841 145.768 111.125 145.569 111.41C145.384 111.676 145.212 111.97 144.969 112.192C144.933 112.225 144.869 112.187 144.886 112.141Z" fill="#1A2E35"/>
<path d="M147.56 113.557C147.648 113.291 147.895 113.052 148.074 112.835C148.276 112.589 148.478 112.342 148.677 112.094C149.077 111.597 149.476 111.101 149.857 110.592C149.876 110.566 149.919 110.592 149.9 110.618C149.516 111.138 149.139 111.662 148.749 112.178C148.558 112.431 148.365 112.684 148.172 112.935C148.007 113.149 147.825 113.434 147.585 113.577C147.571 113.585 147.555 113.57 147.56 113.557Z" fill="#1A2E35"/>
<path d="M152.311 85.9786L158.431 83.3851C158.431 83.3851 155.087 79.3134 152.511 77.8607C149.936 76.408 149.586 77.7573 150.108 79.7921C150.629 81.8272 152.311 85.9786 152.311 85.9786Z" fill="#ECECEC"/>
<path d="M152.323 84.8065C152.283 84.8225 152.283 84.8546 152.323 84.8396C154.367 84.0891 156.664 83.0917 157.45 82.6429C157.462 82.6364 157.452 82.6196 157.439 82.6229C156.554 82.8817 152.769 84.6278 152.323 84.8065Z" fill="#1A2E35"/>
<path d="M150.551 81.3693C151.092 82.9294 151.71 84.5543 152.288 86.063C152.298 86.0903 152.539 85.9375 152.642 85.8825C152.681 85.8614 152.646 85.8294 152.607 85.8454C152.508 85.8869 152.48 85.8916 152.372 85.9193C151.789 84.3945 151.202 82.87 150.571 81.3624C150.566 81.3511 150.547 81.3573 150.551 81.3693Z" fill="#1A2E35"/>
</g>
<mask id="mask8_239_11" style="mask-type:luminance" maskUnits="userSpaceOnUse" x="0" y="0" width="191" height="182">
<path d="M0 1.85966e-05H191V182H0V1.85966e-05Z" fill="white"/>
</mask>
<g mask="url(#mask8_239_11)">
<path d="M58.1657 145.156C57.4846 145.358 38.1588 144.963 37.4311 144.506C37.1564 144.334 37.0518 141.646 37.0231 138.399C37.0162 137.697 37.0155 136.975 37.0178 136.237C37.0201 135.366 37.0254 134.484 37.0361 133.627C37.0873 129.781 37.2091 126.395 37.2091 126.395L49.7911 126.617L49.6444 133.849L49.5909 136.458L49.484 138.619C49.484 138.619 56.8119 141.924 57.5518 142.509C58.2887 143.092 58.8441 144.956 58.1657 145.156Z" fill="#FFABA1"/>
<path d="M58.1657 145.156C57.4846 145.358 38.1588 144.963 37.4311 144.506C37.1564 144.334 37.0518 141.646 37.0231 138.399C37.0162 137.697 37.0155 136.975 37.0178 136.237C37.0201 135.366 37.0254 134.484 37.0361 133.627L49.6444 133.849L49.5909 136.458L49.484 138.619C49.484 138.619 56.8119 141.924 57.5518 142.509C58.2887 143.092 58.8441 144.956 58.1657 145.156Z" fill="white"/>
<path d="M58.2237 145.184C57.7806 145.315 49.5477 145.198 43.5564 144.974C42.1701 144.921 40.9023 144.862 39.8797 144.802C38.4708 144.715 37.5258 144.625 37.3737 144.529C37.038 144.315 36.9516 140.373 36.9554 136.215L49.5996 136.439L49.4923 138.61C49.4923 138.61 56.8611 141.933 57.6067 142.521C58.3467 143.109 58.9052 144.98 58.2237 145.184Z" fill="#FFC800"/>
<path d="M57.9611 144.438C54.7053 144.295 41.5588 144.013 38.329 144.107C38.303 144.109 38.3026 144.126 38.3286 144.127C41.5523 144.336 54.7008 144.517 57.9604 144.489C58.0291 144.489 58.0299 144.441 57.9611 144.438Z" fill="#1A2E35"/>
<path d="M49.9679 137.93C48.6913 137.676 47.1189 137.831 46.12 138.681C46.0811 138.714 46.1311 138.767 46.1727 138.755C47.4459 138.401 48.6324 138.181 49.9595 138.084C50.0527 138.077 50.0592 137.948 49.9679 137.93Z" fill="#1A2E35"/>
<path d="M50.8812 138.48C49.6046 138.226 48.0323 138.381 47.0333 139.232C46.9944 139.265 47.0444 139.317 47.0861 139.305C48.3593 138.951 49.5458 138.731 50.8728 138.634C50.966 138.627 50.9725 138.499 50.8812 138.48Z" fill="#1A2E35"/>
<path d="M51.7946 139.03C50.5176 138.776 48.9457 138.932 47.9467 139.782C47.9078 139.815 47.9574 139.867 47.9994 139.855C49.2727 139.501 50.4591 139.281 51.7862 139.185C51.8794 139.178 51.8859 139.049 51.7946 139.03Z" fill="#1A2E35"/>
<path d="M52.708 139.58C51.4313 139.326 49.859 139.482 48.8601 140.332C48.8215 140.365 48.8712 140.417 48.9128 140.406C50.186 140.052 51.3725 139.832 52.6996 139.735C52.7932 139.728 52.7993 139.599 52.708 139.58Z" fill="#1A2E35"/>
<path d="M50.1133 137.288C49.593 137.473 49.0663 137.633 48.5532 137.837C48.952 137.3 49.3249 136.749 49.7802 136.251C49.9976 136.013 50.2253 135.773 50.4755 135.566C50.864 135.242 52.3897 134.569 52.1337 135.905C51.9928 136.642 50.7337 137.067 50.1133 137.288ZM52.3988 135.154C51.9103 134.482 50.9652 134.76 50.4205 135.178C49.5384 135.854 48.7557 136.922 48.3836 137.936C48.3745 137.961 48.3917 137.976 48.4127 137.98C48.4142 138.073 48.4998 138.174 48.6102 138.137C49.6771 137.785 50.8636 137.535 51.7853 136.881C52.3236 136.5 52.8614 135.788 52.3988 135.154Z" fill="#1A2E35"/>
<path d="M44.5732 136.667C44.0238 135.415 45.6649 135.762 46.1172 135.998C46.4079 136.15 46.6845 136.338 46.95 136.526C47.5065 136.92 47.994 137.382 48.5039 137.826C47.9573 137.731 47.4068 137.682 46.8571 137.607C46.2016 137.518 44.8761 137.358 44.5732 136.667ZM45.1324 137.55C46.1795 138.001 47.3946 138.004 48.5158 138.131C48.6319 138.144 48.6926 138.028 48.6735 137.937C48.6934 137.929 48.7068 137.91 48.6923 137.888C48.1013 136.974 47.097 136.089 46.084 135.608C45.4579 135.311 44.4727 135.232 44.1457 135.987C43.8363 136.702 44.5212 137.287 45.1324 137.55Z" fill="#1A2E35"/>
<mask id="mask9_239_11" style="mask-type:luminance" maskUnits="userSpaceOnUse" x="36" y="137" width="13" height="9">
<path d="M36.9597 137.749H48.332V145.118H36.9597V137.749Z" fill="white"/>
</mask>
<g mask="url(#mask9_239_11)">
<g opacity="0.199997">
<path d="M48.332 145.118C46.7051 145.079 45.0594 145.028 43.5551 144.972C42.1692 144.922 40.9021 144.863 39.8791 144.802C38.471 144.715 37.5252 144.625 37.3743 144.528C37.0798 144.34 36.9748 141.295 36.9595 137.749C39.8279 139.576 45.4647 143.247 48.332 145.118Z" fill="black"/>
</g>
</g>
<path d="M50.7261 138.47L36.3683 138.484C36.3683 138.484 37.1552 107.687 37.0009 106.968C36.6303 105.255 28.4651 78.1021 28.4651 78.1021L39.8032 78.2881L43.6752 78.3525C43.6752 78.3525 43.3406 82.8741 43.4769 83.3538C45.3713 89.9415 49.0698 101.189 49.825 105.359C51.1333 112.586 50.7261 138.47 50.7261 138.47Z" fill="#1A2E35"/>
<path d="M50.2607 136.183C48.0215 136.128 40.0873 135.903 37.1012 136.115C37.0783 136.117 37.0783 136.153 37.1008 136.157C38.1242 136.315 48.0203 136.271 50.2604 136.242C50.3024 136.241 50.3028 136.184 50.2607 136.183Z" fill="#2B454E"/>
<path d="M38.1266 106.288C37.698 104.623 34.5003 94.2512 33.522 90.9749C32.5444 87.7014 31.6261 84.4094 30.7822 81.1025C30.6753 80.6828 30.5668 80.2642 30.4499 79.8474C30.44 79.8121 30.3869 79.8277 30.3934 79.8623C30.7162 81.528 31.1429 83.1791 31.5535 84.8265C31.9649 86.4755 32.4027 88.1175 32.8638 89.754C33.7901 93.042 34.7986 96.31 35.8972 99.5496C36.4446 101.165 37.3477 104.481 37.8282 106.116C38.308 107.748 37.5238 134.569 37.5738 135.004C37.588 135.127 37.7755 135.129 37.7782 135.003C37.8401 131.843 38.5502 107.933 38.1266 106.288Z" fill="#2B454E"/>
<path d="M39.8048 78.2863C39.8048 78.2863 37.0322 107.107 37.0017 106.967C36.6437 105.309 28.9682 79.7751 28.4861 78.1789C28.4705 78.1276 28.4644 78.1021 28.4644 78.1021L39.8048 78.2863Z" fill="#2B454E"/>
<path d="M43.2746 146.734C42.5931 146.936 23.2673 146.542 22.54 146.084C22.2649 145.912 22.1607 143.225 22.132 139.977C22.1247 139.275 22.124 138.553 22.1267 137.815C22.129 136.944 22.1339 136.062 22.145 135.205C22.1958 131.359 22.318 127.973 22.318 127.973L34.8996 128.195L34.7533 135.428L34.6998 138.037L34.5925 140.197C34.5925 140.197 41.9204 143.503 42.6603 144.088C43.3972 144.67 43.9526 146.535 43.2746 146.734Z" fill="#FFABA1"/>
<path d="M43.2746 146.734C42.5931 146.936 23.2673 146.542 22.54 146.084C22.2649 145.912 22.1607 143.225 22.132 139.977C22.1247 139.275 22.124 138.553 22.1267 137.815C22.129 136.944 22.1339 136.062 22.145 135.205L34.7533 135.428L34.6998 138.037L34.5925 140.197C34.5925 140.197 41.9204 143.503 42.6603 144.088C43.3972 144.67 43.9526 146.535 43.2746 146.734Z" fill="white"/>
<path d="M43.3321 146.763C42.889 146.893 34.6561 146.776 28.6648 146.552C27.2785 146.499 26.0107 146.44 24.988 146.38C23.5792 146.293 22.6342 146.203 22.4821 146.108C22.1464 145.893 22.06 141.951 22.0638 137.794L34.708 138.017L34.6007 140.188C34.6007 140.188 41.9695 143.511 42.7155 144.1C43.4551 144.688 44.0136 146.558 43.3321 146.763Z" fill="#FFC800"/>
<path d="M43.0699 146.017C39.8141 145.873 26.6676 145.591 23.4374 145.686C23.4114 145.687 23.411 145.704 23.437 145.706C26.6611 145.914 39.8095 146.095 43.0688 146.068C43.1375 146.067 43.1387 146.019 43.0699 146.017Z" fill="#1A2E35"/>
<path d="M35.0765 139.508C33.7995 139.254 32.2276 139.41 31.2283 140.26C31.1897 140.293 31.2393 140.345 31.281 140.334C32.5546 139.979 33.741 139.759 35.0677 139.663C35.1613 139.655 35.1678 139.527 35.0765 139.508Z" fill="#1A2E35"/>
<path d="M35.9897 140.059C34.7131 139.805 33.1408 139.96 32.1418 140.81C32.1032 140.843 32.1529 140.895 32.1945 140.884C33.4677 140.529 34.6542 140.309 35.9813 140.213C36.0749 140.206 36.081 140.077 35.9897 140.059Z" fill="#1A2E35"/>
<path d="M36.9032 140.609C35.6266 140.355 34.0542 140.51 33.0553 141.36C33.0164 141.393 33.0664 141.445 33.108 141.434C34.3812 141.08 35.5677 140.86 36.8948 140.763C36.988 140.756 36.9945 140.627 36.9032 140.609Z" fill="#1A2E35"/>
<path d="M37.8166 141.159C36.5396 140.905 34.9676 141.06 33.9687 141.91C33.9297 141.944 33.9794 141.996 34.0214 141.984C35.2946 141.63 36.4811 141.41 37.8082 141.313C37.9014 141.306 37.9079 141.177 37.8166 141.159Z" fill="#1A2E35"/>
<path d="M35.222 138.866C34.7017 139.052 34.1749 139.211 33.6623 139.415C34.0607 138.878 34.4335 138.328 34.8889 137.829C35.1062 137.592 35.3343 137.351 35.5841 137.144C35.9726 136.821 37.4983 136.148 37.2424 137.483C37.1014 138.22 35.8423 138.646 35.222 138.866ZM37.5075 136.732C37.0189 136.06 36.0738 136.339 35.5295 136.756C34.6471 137.433 33.8643 138.501 33.4923 139.514C33.4831 139.539 33.5003 139.555 33.5213 139.559C33.5232 139.651 33.6084 139.752 33.7188 139.715C34.7857 139.363 35.9722 139.113 36.894 138.46C37.4322 138.078 37.9701 137.367 37.5075 136.732Z" fill="#1A2E35"/>
<path d="M29.6819 138.246C29.1322 136.993 30.7737 137.34 31.2259 137.576C31.5163 137.728 31.7928 137.917 32.0587 138.104C32.6153 138.499 33.1027 138.961 33.6127 139.404C33.0657 139.31 32.5156 139.261 31.9659 139.186C31.3104 139.096 29.9848 138.936 29.6819 138.246ZM30.2408 139.129C31.2878 139.579 32.503 139.582 33.6241 139.709C33.7407 139.722 33.8014 139.607 33.7823 139.516C33.8018 139.507 33.8151 139.489 33.8006 139.466C33.2101 138.552 32.2058 137.668 31.1923 137.186C30.5666 136.889 29.5814 136.81 29.2541 137.565C28.9446 138.28 29.63 138.866 30.2408 139.129Z" fill="#1A2E35"/>
<path d="M35.4384 139.863L21.5061 139.618C21.5061 139.618 25.4185 91.7357 24.9323 89.199C24.1358 85.0465 24.8142 80.3068 26.9106 78.0566L40.4865 78.2957C40.4865 78.2957 40.6852 81.9313 39.242 84.0749C39.242 84.0749 37.9535 84.8193 37.3282 85.1469L35.4384 139.863Z" fill="#1A2E35"/>
<path d="M35.0545 137.507C32.942 137.417 33.5498 137.414 31.4362 137.347C30.4017 137.314 23.6056 137.103 22.6353 137.234C22.6139 137.237 22.6127 137.271 22.6341 137.274C23.5968 137.449 30.396 137.547 31.4308 137.561C33.5452 137.59 32.9382 137.56 35.053 137.566C35.0927 137.566 35.0942 137.508 35.0545 137.507Z" fill="#2B454E"/>
<path d="M40.1 83.5074C38.7481 84.0742 37.4639 84.8218 36.2415 85.5946C36.1933 85.6248 36.2338 85.694 36.2865 85.6678C37.5911 85.0097 38.9242 84.3727 40.1879 83.6498C40.2872 83.593 40.2036 83.4638 40.1 83.5074Z" fill="#2B454E"/>
<path d="M38.3748 83.2906C38.2888 83.5392 38.2254 83.7955 38.1757 84.0517C38.1368 84.2508 38.0787 84.4674 38.1227 84.6676C38.1314 84.7066 38.1884 84.7051 38.2082 84.6767C38.3343 84.498 38.3713 84.2658 38.4313 84.0619C38.5008 83.8257 38.5757 83.5909 38.638 83.3529C38.6792 83.1952 38.4275 83.1374 38.3748 83.2906Z" fill="#2B454E"/>
<path d="M38.277 82.0423C38.3175 81.8268 38.358 81.6117 38.4034 81.3973C38.4504 81.1753 38.5123 80.9532 38.5409 80.7287C38.5459 80.6934 38.6055 80.705 38.5986 80.741C38.5589 80.9565 38.5505 81.1797 38.5283 81.3977C38.5058 81.6168 38.4798 81.8349 38.4523 82.0533C38.4015 82.4598 38.3201 82.8697 38.2277 83.2708C38.4489 83.2242 38.6754 83.1704 38.8568 83.035C39.0532 82.8879 39.1384 82.64 39.2026 82.4187C39.2744 82.1723 39.3355 81.9233 39.4107 81.6783C39.4948 81.4072 39.593 81.136 39.6258 80.8539C39.6296 80.8186 39.6885 80.8302 39.6835 80.8663C39.5968 81.4523 39.5135 82.0372 39.3042 82.6029C39.222 82.8249 39.1651 83.0503 38.9516 83.1729C38.7224 83.3047 38.4485 83.3411 38.1876 83.3738C38.1574 83.3888 38.1123 83.3771 38.1154 83.3385C38.1498 82.9072 38.1971 82.4679 38.277 82.0423Z" fill="#2B454E"/>
<path d="M27.1399 89.0721C27.0612 88.1195 26.9168 87.1731 26.8266 86.2216C26.6452 84.3085 26.8324 82.4018 27.2988 80.5345C27.3072 80.4996 27.2499 80.485 27.2422 80.5199C26.8786 82.1689 26.5577 83.8163 26.6116 85.5089C26.665 87.1862 26.9447 88.8453 26.9405 90.5267C26.9359 92.2291 26.7625 93.9275 26.615 95.623C26.4664 97.3284 26.3182 99.0341 26.1696 100.739C25.5729 107.595 25.0125 114.453 24.4407 121.311C24.281 123.225 24.1301 125.139 23.9765 127.054C23.8203 129.002 23.5838 133.807 23.47 135.758C23.4601 135.927 23.724 135.919 23.7416 135.757C24.1148 132.318 24.4147 126.006 24.7126 122.561C25.0072 119.151 25.2834 115.739 25.5683 112.328C25.8533 108.917 26.1348 105.506 26.4141 102.095C26.5535 100.39 26.688 98.6843 26.8243 96.9786C26.9603 95.2798 27.125 93.5803 27.1849 91.8771C27.2178 90.9424 27.2167 90.0051 27.1399 89.0721Z" fill="#2B454E"/>
<path d="M32.1146 80.501C32.105 80.4799 32.0752 80.4726 32.0611 80.4948C31.9457 80.6765 31.9595 80.9808 31.9194 81.1901C31.8701 81.4441 31.8094 81.6942 31.7192 81.9381C31.5362 82.4335 31.294 82.8728 30.8792 83.2296C30.0094 83.9761 28.8603 84.2378 27.7518 84.4759C27.7109 84.4846 27.7246 84.5381 27.7613 84.5414C28.4096 84.5967 29.0723 84.4763 29.6896 84.2884C30.2351 84.1228 30.7623 83.8909 31.1909 83.5226C31.6164 83.1568 31.8858 82.6817 32.0191 82.1532C32.0878 81.8824 32.1111 81.5945 32.1272 81.3171C32.1352 81.1824 32.139 81.047 32.1413 80.912C32.1432 80.7802 32.1696 80.6237 32.1146 80.501Z" fill="#2B454E"/>
<path d="M40.1383 60.4067C42.1789 66.6679 46.3065 72.7584 47.5846 73.5886C49.5645 74.875 58.9526 75.9772 62.0418 75.6329C63.0533 75.5204 62.6794 68.8373 61.7534 68.2917C60.8274 67.7461 51.7014 67.6365 51.0818 67.4017C50.7518 67.2769 45.8855 61.9272 43.1469 59.136C40.5936 56.5338 39.5187 58.5059 40.1383 60.4067Z" fill="#FFABA1"/>
<path d="M47.2903 63.1467L42.0763 67.1533C42.0763 67.1533 39.7992 62.4602 39.6178 59.6137C39.436 56.7672 40.8559 57.0857 42.5183 58.4562C44.1804 59.827 47.2903 63.1467 47.2903 63.1467Z" fill="#ECECEC"/>
<path d="M46.3631 62.5724C46.3978 62.547 46.3902 62.516 46.3547 62.54C44.5757 63.7587 42.6183 65.2766 41.9769 65.9005C41.967 65.9096 41.9815 65.9234 41.9926 65.9169C42.7807 65.4535 45.9795 62.8527 46.3631 62.5724Z" fill="#1A2E35"/>
<path d="M24.6852 79.5498C24.7208 79.6073 44.4297 83.3856 44.6493 83.2266C44.9565 83.0023 45.3201 63.552 42.959 58.891C42.3688 57.7251 39.6967 56.5366 38.3295 57.3796C34.3686 59.8217 33.1756 62.2445 31.8982 64.1715C30.9527 65.5991 29.6616 68.0911 28.4369 70.6627C26.413 74.8993 24.5596 79.3427 24.6852 79.5498Z" fill="#ECECEC"/>
<path d="M37.9848 57.3677C37.9848 57.3677 39.7072 64.2003 39.8829 65.8976C40.124 68.2221 38.3381 82.9783 38.3381 82.9783L24.3306 79.7737C24.3306 79.7737 29.7752 65.645 33.8206 60.9927C37.0046 57.3309 37.9848 57.3677 37.9848 57.3677Z" fill="#FFC800"/>
<path d="M42.5183 58.4563C42.5183 58.4563 43.0737 64.5172 43.2357 65.4396C43.3984 66.3616 43.0737 83.7965 43.0737 83.7965L44.9352 83.4751C44.9352 83.4751 45.1786 71.4096 44.5689 65.1426C43.9592 58.876 42.5183 58.4563 42.5183 58.4563Z" fill="#FFC800"/>
<path d="M38.9991 77.1991L26.3369 75.0118C26.5283 74.5768 26.73 74.1215 26.9412 73.6512L39.1507 75.7602C39.1018 76.2487 39.0476 76.7299 38.9991 77.1991Z" fill="#ECECEC"/>
<path d="M44.9825 78.2326L43.1726 77.9199C43.1822 77.4438 43.1871 76.9542 43.1932 76.4585L44.9802 76.7671C44.9825 77.2709 44.9841 77.762 44.9825 78.2326Z" fill="#ECECEC"/>
<path d="M38.7188 79.7224L25.3091 77.4063C25.4825 76.9939 25.6777 76.5374 25.8901 76.0446L38.8766 78.2879C38.8208 78.7946 38.7666 79.2758 38.7188 79.7224Z" fill="#ECECEC"/>
<path d="M44.9712 80.8025L43.1318 80.4847C43.1406 80.0283 43.149 79.539 43.1582 79.0276L44.9811 79.3425C44.9761 79.8677 44.9742 80.3577 44.9712 80.8025Z" fill="#ECECEC"/>
<path d="M66.091 52.0418C68.7975 49.6074 72.614 48.9872 75.8813 50.1323L70.2311 55.2141L72.0418 59.1253L76.0349 61.073L81.6885 55.9876C82.7 59.1686 81.8267 62.7595 79.1199 65.1943C75.311 68.6202 69.3033 68.4586 65.7041 64.8255C62.1087 61.1961 62.2821 55.4682 66.091 52.0418Z" fill="#375A64"/>
<path d="M39.4555 100.875C36.7486 103.31 32.9324 103.93 29.6652 102.785L35.3153 97.703L33.5047 93.7919L29.5116 91.8441L23.8576 96.9295C22.8465 93.7489 23.7197 90.1577 26.4262 87.7229C30.2351 84.2969 36.2432 84.4585 39.842 88.0916C43.4378 91.7214 43.2644 97.4493 39.4555 100.875Z" fill="#375A64"/>
<path d="M67.4435 57.7237L73.2472 63.5823L39.679 93.7757L33.8752 87.9175L67.4435 57.7237Z" fill="#375A64"/>
<path d="M59.2782 68.3264L61.668 70.739L47.8441 83.1733L45.4543 80.7607L59.2782 68.3264Z" fill="#2B454E"/>
<path d="M34.7679 61.4963C32.7949 66.2978 32.5378 73.4602 34.3909 75.5332C37.3036 78.7914 42.5653 81.7387 45.1445 82.4798C46.65 82.9122 48.9794 74.7277 47.6623 74.2803C45.5846 73.5745 40.6549 71.6606 39.9864 71.2267C39.3179 70.7928 38.8175 65.7296 38.1497 62.0044C37.4239 57.9542 35.7722 59.052 34.7679 61.4963Z" fill="#FFABA1"/>
<path d="M44.4773 82.2386C48.9303 83.9785 54.2324 83.3605 55.1011 83.07C55.8418 82.8246 56.2207 82.6918 56.2207 82.6918C57.5585 82.2765 57.8928 81.5481 57.8928 81.5481C57.8928 81.5481 59.5877 81.5019 59.7286 80.5209C59.8898 79.4216 57.4779 79.7015 56.0527 79.0827C52.7869 77.6646 48.5616 74.7784 47.6624 74.2801L44.4773 82.2386Z" fill="#FFABA1"/>
<path d="M51.5345 79.8881C52.5043 80.2874 53.4456 80.7034 54.4671 80.9753C55.5879 81.2734 56.719 81.3815 57.8672 81.5188C57.9032 81.5231 57.9009 81.5708 57.8646 81.5719C55.7445 81.6374 53.3058 81.0114 51.4947 79.9667C51.4508 79.9416 51.4856 79.868 51.5345 79.8881Z" fill="#1A2E35"/>
<path d="M50.3497 81.6417C51.3157 81.9803 53.0179 82.5648 56.2225 82.6588C56.2328 82.6591 56.2355 82.6762 56.2241 82.6773C54.1349 82.8797 52.2043 82.5736 50.3172 81.7357C50.2584 81.7094 50.2855 81.6192 50.3497 81.6417Z" fill="#1A2E35"/>
<path d="M52.2313 77.1363C51.8829 76.7913 52.0705 76.6144 52.9556 76.7323C53.8514 76.8491 57.239 78.0303 57.5709 76.8659C57.9063 75.6978 53.0832 74.1013 51.5938 74.0132C50.1043 73.9219 47.6626 74.28 47.6626 74.28C48.5351 74.7707 50.5322 76.1528 52.2313 77.1363Z" fill="#FFABA1"/>
<path d="M39.2842 67.4157L32.6072 67.921C32.6072 67.921 33.5053 62.822 35.0405 60.3741C36.5758 57.9262 37.5594 58.9527 38.1206 60.9777C38.6817 63.003 39.2842 67.4157 39.2842 67.4157Z" fill="#ECECEC"/>
<path d="M38.8582 66.4431C38.9021 66.441 38.914 66.4111 38.8708 66.4122C36.68 66.4621 34.1653 66.663 33.2665 66.833C33.2527 66.8355 33.2565 66.8545 33.2695 66.8552C34.1947 66.8963 38.3757 66.4683 38.8582 66.4431Z" fill="#1A2E35"/>
<path d="M41.3539 60.6003C40.5055 60.612 38.7926 59.0522 38.1463 57.7604C38.1023 57.672 38.2933 56.7736 38.4717 55.6714C38.5772 55.0024 38.678 54.2547 38.7185 53.5664L43.1883 54.8564C43.1883 54.8564 42.6581 56.2757 42.5954 57.4761C42.5916 57.5766 42.5966 57.6705 42.6103 57.7604C42.6111 57.7735 42.6141 57.7895 42.6141 57.8077C42.6745 58.349 42.6825 60.5821 41.3539 60.6003Z" fill="#FFABA1"/>
<path d="M42.6095 57.7612C42.6095 57.7739 42.6122 57.79 42.6153 57.8089C42.4716 57.8191 42.315 57.8194 42.1454 57.8067C39.523 57.6116 39.0504 54.4972 38.9702 53.6418L43.1894 54.8561C43.1894 54.8561 42.6584 56.2757 42.595 57.4751C42.5931 57.5767 42.5981 57.672 42.6095 57.7612Z" fill="#1A2E35"/>
<path d="M38.979 47.727C38.2127 49.1543 38.2314 53.6573 39.1761 54.821C40.5452 56.5085 43.194 57.0986 44.8014 55.4417C46.3596 53.8357 46.2259 47.9676 45.133 46.8698C43.5232 45.2529 40.1108 45.6188 38.979 47.727Z" fill="#FFABA1"/>
<path d="M43.2317 51.0498C43.2287 51.0385 43.2077 51.065 43.2084 51.0778C43.2321 51.3803 43.2057 51.7308 42.9223 51.8429C42.9135 51.8462 42.9154 51.8615 42.9261 51.8597C43.2749 51.7985 43.3051 51.3329 43.2317 51.0498Z" fill="#1A2E35"/>
<path d="M42.9336 50.7449C42.4205 50.7289 42.4244 51.7081 42.8996 51.723C43.3675 51.7375 43.3637 50.7584 42.9336 50.7449Z" fill="#1A2E35"/>
<path d="M44.9251 50.9906C44.9274 50.9789 44.9499 51.0051 44.9495 51.0171C44.9408 51.3207 44.9839 51.6694 45.2723 51.7692C45.2815 51.7721 45.2807 51.7874 45.27 51.7863C44.9182 51.74 44.8655 51.2767 44.9251 50.9906Z" fill="#1A2E35"/>
<path d="M45.2082 50.673C45.7197 50.634 45.7637 51.6124 45.2896 51.6481C44.8228 51.6834 44.7793 50.7054 45.2082 50.673Z" fill="#1A2E35"/>
<path d="M42.5262 50.2986C42.666 50.2648 42.789 50.2109 42.9238 50.1636C43.0755 50.1101 43.2023 50.0828 43.3013 49.9525C43.3547 49.8826 43.3318 49.7574 43.2657 49.702C43.111 49.5725 42.9078 49.5936 42.7221 49.6511C42.5208 49.713 42.3825 49.8098 42.2676 49.9787C42.156 50.1425 42.3421 50.3434 42.5262 50.2986Z" fill="#1A2E35"/>
<path d="M45.5644 50.2901C45.4219 50.2683 45.294 50.2261 45.1557 50.1908C44.9991 50.1507 44.8703 50.1343 44.7592 50.0135C44.6992 49.9483 44.7099 49.822 44.7706 49.7605C44.912 49.6182 45.1163 49.6218 45.3066 49.6622C45.5132 49.7063 45.6603 49.7907 45.7913 49.9491C45.9178 50.1023 45.7524 50.3189 45.5644 50.2901Z" fill="#1A2E35"/>
<path d="M42.7597 53.8752C42.8361 53.9458 42.9125 54.0434 43.0283 54.0521C43.1391 54.0609 43.2686 54.0128 43.3702 53.9749C43.3801 53.9713 43.39 53.9811 43.3839 53.9902C43.3014 54.1071 43.128 54.1806 42.9805 54.1562C42.8361 54.1329 42.7647 54.0143 42.7292 53.889C42.7242 53.8716 42.7487 53.865 42.7597 53.8752Z" fill="#1A2E35"/>
<path d="M43.0908 52.9659C43.2699 53.2287 43.5324 53.3714 43.8158 53.4227C43.9422 53.4468 44.0756 53.4504 44.2058 53.4384C44.2314 53.438 44.257 53.4351 44.2803 53.43C44.3032 53.4275 44.3242 53.4249 44.3498 53.4198C44.3873 53.4144 44.4075 53.3849 44.4136 53.3518L44.4133 53.3496C44.4133 53.3383 44.4129 53.3296 44.4106 53.3183L44.4102 53.3161L44.4098 53.2895C44.4155 53.0562 44.3903 52.7009 44.3903 52.7009C44.4801 52.7435 44.9374 52.9375 44.9297 52.8152C44.8625 51.8055 44.7876 50.6829 44.4973 49.6914C44.4893 49.6583 44.4358 49.6663 44.4392 49.6994C44.4633 50.6724 44.6669 51.6344 44.7078 52.6114C44.5619 52.5593 44.3239 52.4625 44.1955 52.4654C44.1608 52.4749 44.257 53.1508 44.2456 53.2553C44.2456 53.2553 44.2456 53.26 44.2436 53.2666C43.8319 53.3183 43.5209 53.2007 43.1206 52.9386C43.0965 52.9212 43.0717 52.9419 43.0908 52.9659Z" fill="#1A2E35"/>
<path d="M44.0606 53.3207C44.0606 53.3207 43.8443 53.601 43.5471 53.7025C43.4379 53.7404 43.3199 53.7557 43.1961 53.7247C42.9417 53.6621 42.9344 53.4397 42.9803 53.2493C43.0177 53.0928 43.0929 52.9578 43.0929 52.9578C43.0929 52.9578 43.4654 53.2876 44.0606 53.3207Z" fill="#1A2E35"/>
<path d="M43.5474 53.7026C43.4378 53.7405 43.3201 53.7558 43.1963 53.7248C42.9419 53.6622 42.9347 53.4398 42.9805 53.2495C43.2529 53.2753 43.5233 53.4504 43.5474 53.7026Z" fill="#FF9CBF"/>
<path d="M45.6865 48.1052C45.641 47.9709 45.5153 47.6331 45.3331 47.6142C45.1035 47.5873 44.9179 47.9345 44.4786 48.0106C43.8601 48.1227 42.8554 47.4012 42.0002 47.5487C41.1674 47.6914 40.5814 48.4095 40.2899 49.8117C39.9981 51.2163 38.7234 52.2577 38.4762 51.3001C38.4697 51.2651 38.4548 51.2036 38.4319 51.1151C38.4307 49.7487 38.6172 48.3979 38.9789 47.7267C40.11 45.6198 43.5255 45.2526 45.1337 46.8713C45.364 47.1009 45.5505 47.5421 45.6865 48.1052Z" fill="#1A2E35"/>
<path d="M39.291 51.4472C39.291 51.4472 38.4873 49.8761 37.755 50.1277C37.0227 50.3788 37.4635 52.5472 38.208 52.9468C38.9522 53.3465 39.354 52.6971 39.354 52.6971L39.291 51.4472Z" fill="#FFABA1"/>
<path d="M37.8974 50.746C37.8848 50.7431 37.8799 50.7598 37.8898 50.7656C38.4089 51.063 38.6198 51.597 38.7401 52.1361C38.6076 51.9155 38.4005 51.7747 38.0949 51.9203C38.0789 51.9279 38.0888 51.9516 38.1049 51.9508C38.3402 51.9385 38.4976 52.0007 38.6225 52.1973C38.7107 52.3367 38.7592 52.503 38.8135 52.6563C38.8318 52.7076 38.9254 52.6956 38.9158 52.6384C38.9151 52.6341 38.9139 52.6297 38.9132 52.6257C39.0389 51.9537 38.6454 50.928 37.8974 50.746Z" fill="#1A2E35"/>
<path d="M46.2347 48.4313C46.2347 48.4313 45.6651 44.0062 41.5201 44.459C37.375 44.9122 37.8716 49.3453 37.8716 49.3453L46.2347 48.4313Z" fill="#FFC800"/>
<path d="M37.5983 49.6933L46.5834 48.7112L46.5081 48.0837L37.5227 49.0654L37.5983 49.6933Z" fill="#FFC800"/>
<path d="M42.0822 48.5671L43.9528 48.3626L42.9902 44.0688L41.1191 44.2734L42.0822 48.5671Z" fill="#FFC800"/>
<mask id="mask10_239_11" style="mask-type:luminance" maskUnits="userSpaceOnUse" x="41" y="44" width="3" height="5">
<path d="M41.1191 44.0688H43.9532V48.5671H41.1191V44.0688Z" fill="white"/>
</mask>
<g mask="url(#mask10_239_11)">
<g opacity="0.100006">
<path d="M42.0822 48.5673L43.9528 48.3627L42.9902 44.0689L41.1191 44.2735L42.0822 48.5673Z" fill="black"/>
</g>
</g>
<path d="M57.9983 73.4232C58.0754 72.4203 59.2715 73.0814 59.2715 73.0814C59.2715 73.0814 57.7905 71.7349 58.2894 70.7303C58.7733 69.7635 60.1887 70.6098 60.2906 70.6695C60.2131 70.5974 58.886 69.3263 59.4969 68.3661C60.1321 67.3687 61.4 68.4513 61.4817 68.5215C61.4305 68.4316 60.7773 67.2333 61.4153 66.6043C62.5124 65.524 64.6814 68.7982 65.9229 69.0839L67.7721 67.6578C67.6189 68.0709 67.4172 68.4626 67.5334 69.3555C67.6422 70.1908 67.7213 70.7478 67.5326 71.2432C67.2213 72.0574 66.4069 72.0039 66.4069 72.0039C66.4069 72.0039 67.0727 72.8611 66.617 73.6314C66.382 74.0263 65.5099 74.0194 65.5099 74.0194C65.5099 74.0194 66.0126 74.727 65.5626 75.388C65.2051 75.9169 64.3861 75.8274 64.3861 75.8274C64.3861 75.8274 64.5381 76.7206 63.9888 77.1472C62.8825 78.011 57.8348 75.5704 57.9983 73.4232Z" fill="#FFABA1"/>
<path d="M66.3999 68.8179L67.7392 67.6902C67.798 67.6596 67.8595 67.6276 67.918 67.6014C69.9724 66.6491 72.6204 67.838 71.4156 68.8965C70.4999 69.7031 68.4509 69.1957 67.6387 70.1516L67.6368 70.1494L66.3999 68.8179Z" fill="#FFABA1"/>
<path d="M64.254 75.8323C64.2716 75.8392 64.2647 75.8636 64.246 75.8596C62.3803 75.4428 60.4646 74.4404 59.2029 73.0521C59.1612 73.0066 59.2212 72.9225 59.2766 72.9643C60.8646 74.1586 62.3735 75.0974 64.254 75.8323Z" fill="#1A2E35"/>
<path d="M65.5299 74.0411C65.5502 74.0487 65.5368 74.0815 65.5139 74.076C63.594 73.6371 61.4689 72.4512 60.2121 70.6876C60.169 70.6271 60.1938 70.5314 60.2492 70.5977C61.1778 71.71 63.8335 73.3881 65.5299 74.0411Z" fill="#1A2E35"/>
<path d="M61.4384 68.3696C62.712 70.0163 64.4115 71.108 66.3264 71.9907C66.3513 72.002 66.3318 72.0344 66.3081 72.0304C65.2481 71.8418 64.0891 71.1582 63.2345 70.5536C62.4159 69.9741 61.7994 69.2949 61.378 68.4122C61.3616 68.3776 61.4112 68.3343 61.4384 68.3696Z" fill="#1A2E35"/>
<path d="M64.405 79.6147L55.8329 160.636H53.7426L62.1069 81.5963H40.3558L25.2286 160.636H23.1143L38.6193 79.6147H64.405Z" fill="#FFC800"/>
<path d="M62.1789 99.0153H37.1709V97.0336H62.1789V99.0153Z" fill="#FFC800"/>
<path d="M58.8168 115.081H33.8088V113.099H58.8168V115.081Z" fill="#FFC800"/>
<path d="M57.1662 131.147H30.2241V129.165H57.1662V131.147Z" fill="#FFC800"/>
<path d="M55.8907 147.213H27.4661V145.231H55.8907V147.213Z" fill="#FFC800"/>
<mask id="mask11_239_11" style="mask-type:luminance" maskUnits="userSpaceOnUse" x="23" y="79" width="42" height="82">
<path d="M23.1143 79.6148H64.405V160.636H23.1143V79.6148Z" fill="white"/>
</mask>
<g mask="url(#mask11_239_11)">
<g opacity="0.5">
<path d="M64.4048 79.6147L55.8327 160.636H53.7424L62.1067 81.5963H40.3556L25.2284 160.636H23.114L38.619 79.6147H64.4048Z" fill="black"/>
<path d="M62.1787 99.0153H37.1707V97.0336H62.1787V99.0153Z" fill="black"/>
<path d="M58.8168 115.081H33.8088V113.099H58.8168V115.081Z" fill="black"/>
<path d="M57.1662 131.147H30.2241V129.165H57.1662V131.147Z" fill="black"/>
<path d="M55.8907 147.213H27.4661V145.231H55.8907V147.213Z" fill="black"/>
</g>
</g>
<path d="M81.826 167.13H79.7082L62.692 81.5966H40.9478L51.1908 167.13H49.1005L38.6184 79.6146H64.4149L81.826 167.13Z" fill="#FFC800"/>
<mask id="mask12_239_11" style="mask-type:luminance" maskUnits="userSpaceOnUse" x="38" y="79" width="44" height="89">
<path d="M38.6187 79.6148H81.8259V167.13H38.6187V79.6148Z" fill="white"/>
</mask>
<g mask="url(#mask12_239_11)">
<g opacity="0.199997">
<path d="M81.826 167.13H79.7082L62.692 81.5966H40.9478L51.1908 167.13H49.1005L38.6184 79.6146H64.4149L81.826 167.13Z" fill="black"/>
</g>
</g>
<path d="M65.424 77.2521H37.2393V79.6148H65.424V77.2521Z" fill="#FFC800"/>
<mask id="mask13_239_11" style="mask-type:luminance" maskUnits="userSpaceOnUse" x="37" y="77" width="29" height="3">
<path d="M37.2393 77.2521H65.4239V79.6148H37.2393V77.2521Z" fill="white"/>
</mask>
<g mask="url(#mask13_239_11)">
<g opacity="0.199997">
<path d="M65.4237 77.2521H37.239V79.6148H65.4237V77.2521Z" fill="black"/>
</g>
</g>
</g>
<path d="M17.9934 164.09H19.0733V148.005H17.9934V164.09Z" fill="#FFC800"/>
<path d="M32.6044 156.867L31.7144 156.571L32.1789 156.369L31.9481 155.934L32.4134 155.73L32.1819 155.297L32.6468 155.093L32.4153 154.66L32.8806 154.456L32.6499 154.02L33.1144 153.819L32.8837 153.383L33.3486 153.18L33.1171 152.746L33.5823 152.543L33.3516 152.108L33.8161 151.906L33.585 151.471L34.0503 151.267L33.8188 150.834L34.2841 150.63L34.0526 150.197L34.5175 149.993L34.2867 149.557L34.7513 149.356L34.5205 148.92L34.9858 148.717L34.7539 148.283L35.2192 148.08L34.9885 147.644L35.453 147.443L35.2223 147.007L35.6872 146.804L35.4557 146.37L35.9209 146.167L35.6902 145.731L36.1547 145.53L35.9236 145.094L36.3881 144.893L36.1574 144.457L36.6227 144.254L36.3912 143.82L36.8561 143.617L36.6253 143.181L37.0899 142.98L36.8591 142.544L37.3244 142.34L37.0929 141.907L37.5578 141.704L37.3271 141.268L37.7916 141.067L37.5609 140.631L38.025 140.43L37.7943 139.994L38.6843 140.29L32.6044 156.867Z" fill="#C8C8C8"/>
<path d="M39.0902 136.461L37.7944 139.994L38.691 140.293L39.9867 136.76L39.0902 136.461Z" fill="#2B454E"/>
<mask id="mask14_239_11" style="mask-type:luminance" maskUnits="userSpaceOnUse" x="0" y="0" width="191" height="182">
<path d="M0 1.85966e-05H191V182H0V1.85966e-05Z" fill="white"/>
</mask>
<g mask="url(#mask14_239_11)">
<path d="M32.6045 156.867L32.8406 156.223L36.1594 157.328C36.4856 157.437 36.8435 157.272 36.9578 156.962L42.2699 142.478C42.3837 142.168 42.211 141.826 41.8848 141.718L38.5732 140.615L38.8093 139.971L42.1209 141.074C42.8199 141.307 43.1897 142.038 42.9452 142.704L37.6335 157.187C37.389 157.852 36.622 158.205 35.9233 157.972L32.6045 156.867Z" fill="#1A2E35"/>
<path d="M41.0608 164.09H42.1407V148.005H41.0608V164.09Z" fill="#FFC800"/>
<path d="M41.1173 150.111H19.0732V149.284H41.1173V150.111Z" fill="#FFC800"/>
<path d="M19.1875 144.283L18.4219 140.921L22.5957 140.058L23.3612 143.421L19.1875 144.283ZM18.7845 146.316L24.6123 145.111L23.2558 139.153L17.428 140.358L18.7845 146.316Z" fill="#1A2E35"/>
<path d="M25.8813 160.483L25.871 160.48L26.2343 160.295L26.2328 160.275L26.2316 160.274L25.8416 160.188L26.2034 160.002L26.2003 159.98L25.808 159.894L26.1724 159.708L26.1697 159.686L25.7786 159.601L26.1388 159.414L26.1373 159.394L25.745 159.308L26.1094 159.122L26.1063 159.1L25.7152 159.013L26.0781 158.825L26.0758 158.807L26.0769 158.805L25.6842 158.719L26.046 158.533L26.0433 158.514L25.6521 158.427L26.015 158.239L26.0127 158.22L26.0139 158.219L25.6212 158.133L25.9829 157.947L25.9803 157.928L25.9799 157.926L25.5891 157.841L25.952 157.653L25.9493 157.634L25.5582 157.547L25.9211 157.359L25.9199 157.339L25.5242 157.254L25.889 157.067L25.8863 157.046L25.4951 156.961L25.858 156.774L25.8569 156.753L25.4627 156.666L25.8256 156.478L25.8229 156.459L25.4317 156.372L25.7946 156.185L25.7938 156.167L25.4008 156.078L25.7625 155.892L25.7614 155.872L25.3687 155.786L25.7316 155.599L25.7301 155.578L25.3377 155.492L25.7022 155.306L25.701 155.286L25.3068 155.199L25.6686 155.013L25.667 154.992L25.2759 154.905L25.6388 154.717L25.6361 154.698L25.2422 154.611L25.6051 154.424L25.6036 154.404L25.2113 154.318L25.5757 154.131L25.5746 154.111L25.1804 154.024L25.5448 153.837L25.5436 153.817L25.1494 153.73L25.5138 153.544L25.5112 153.525L25.1173 153.438L25.4829 153.25L25.4806 153.231L25.0864 153.144L25.4493 152.956L25.4466 152.938L25.0554 152.85L25.4199 152.664L25.4176 152.645L25.023 152.558L25.3863 152.37L25.3874 152.369L25.3847 152.35L24.992 152.261L25.3565 152.075L25.3542 152.057L24.9596 151.969L25.3255 151.781L25.3232 151.762L24.929 151.676L25.2934 151.489L25.2911 151.47L24.8965 151.383L25.2625 151.195L25.2602 151.177L24.866 151.089L25.2304 150.903L25.2281 150.884L24.8335 150.797L25.1991 150.606L25.1968 150.59L24.8029 150.503L25.1681 150.313L25.1643 150.295L24.772 150.21L25.136 150.021L25.1334 150.002L24.7395 149.915L25.1051 149.727L25.1024 149.708L24.7086 149.621L25.073 149.434L25.0715 149.414L24.6761 149.328L25.0421 149.141L25.0405 149.12L24.6467 149.033L25.01 148.848L25.0085 148.828L24.6146 148.741L24.9787 148.552L24.9775 148.534L24.5837 148.447L24.9492 148.259L24.9485 148.242L24.5516 148.155L24.9156 147.966L24.9141 147.946L24.5203 147.858L24.8862 147.674L24.8851 147.653L24.4882 147.567L24.8537 147.378L24.8511 147.359L24.4568 147.272L24.8228 147.084L24.822 147.067L24.4278 146.98L24.7934 146.792L24.788 146.773L24.3938 146.687L24.7598 146.499L24.7571 146.48L24.3629 146.393L24.7288 146.204L24.7277 146.187L24.3308 146.1L24.6979 145.911L24.6941 145.894L24.2998 145.807L24.6669 145.617L24.6643 145.598L24.2674 145.512L24.6333 145.324L24.6119 145.112L18.7849 146.316L22.9224 161.068L25.8813 160.483Z" fill="#C8C8C8"/>
<mask id="mask15_239_11" style="mask-type:luminance" maskUnits="userSpaceOnUse" x="19" y="145" width="8" height="16">
<path d="M19.2998 145.112H26.2035V160.95H19.2998V145.112Z" fill="white"/>
</mask>
<g mask="url(#mask15_239_11)">
<g opacity="0.300003">
<path d="M20.1331 151.12L24.5812 147.586L24.8245 147.393L24.8528 147.37L24.8516 147.36L24.4574 147.273L24.823 147.084L24.8222 147.067L24.428 146.98L24.7939 146.792L24.7886 146.773L24.3944 146.686L24.7599 146.499L24.7573 146.48L24.486 146.42L19.8474 150.104L20.1331 151.12Z" fill="white"/>
<path d="M23.5249 160.95L25.6095 160.537L26.0029 160.224L25.8417 160.188L26.2035 160.002L26.2004 159.98L25.8081 159.894L26.1725 159.708L26.1699 159.686L25.7787 159.602L26.1389 159.414L26.1374 159.394L25.7451 159.308L26.1095 159.122L26.1065 159.1L25.9086 159.056L23.5249 160.95Z" fill="white"/>
<path d="M25.5161 155.711L25.7316 155.599L25.7304 155.579L25.6918 155.57L25.5161 155.711Z" fill="white"/>
<path d="M22.451 159.387L25.5039 156.963L25.5272 156.943L25.7877 156.738L25.4626 156.666L25.8255 156.478L25.8233 156.46L25.4317 156.372L25.7946 156.185L25.7938 156.167L25.4008 156.078L25.7625 155.892L25.7614 155.872L25.4099 155.795L22.1667 158.369L22.451 159.387Z" fill="white"/>
<path d="M19.6135 149.268L24.3266 145.524L24.4809 145.402L24.6295 145.285L24.6123 145.112L23.8678 145.266L19.4702 148.759L19.6135 149.268Z" fill="white"/>
<path d="M25.3515 154.348L25.2113 154.317L25.5757 154.131L25.5746 154.111L25.3266 154.056L21.7534 156.894L21.8233 157.149L25.3515 154.348Z" fill="white"/>
<path d="M19.3716 148.408L23.1358 145.416L22.6068 145.527L19.2998 148.152L19.3716 148.408Z" fill="white"/>
</g>
</g>
<path d="M21.0752 153.247L23.8325 152.51L25.8181 159.253C25.9606 159.737 25.6645 160.24 25.1565 160.376L24.2389 160.621C23.7309 160.757 23.2037 160.474 23.0608 159.99L21.0752 153.247Z" fill="#2B454E"/>
<path d="M21.3179 152.424L23.1759 151.927L23.383 152.63L21.5249 153.127L21.3179 152.424Z" fill="#2B454E"/>
<path d="M19.7256 144.694L20.3154 144.536L22.5417 152.097L21.9519 152.255L19.7256 144.694Z" fill="#ECECEC"/>
<path d="M19.2305 144.11C19.2305 144.11 19.25 142.85 19.2889 142.84L19.4841 142.787L19.4876 142.787L19.6828 142.735C19.7217 142.724 20.4261 143.79 20.4261 143.79L20.3161 144.535L19.7309 144.691L19.2305 144.11Z" fill="#ECECEC"/>
<path d="M23.3064 153.45L23.7877 153.321L25.5224 159.212L25.0407 159.34L23.3064 153.45Z" fill="#1A2E35"/>
<path d="M22.4126 153.689L22.8943 153.561L24.6286 159.45L24.1469 159.579L22.4126 153.689Z" fill="#1A2E35"/>
<path d="M21.5188 153.928L22.0005 153.799L23.7348 159.689L23.2531 159.818L21.5188 153.928Z" fill="#1A2E35"/>
<path d="M27.4448 152.102L24.5847 151.966L24.9507 144.971C24.977 144.469 25.4255 144.082 25.9527 144.107L26.9038 144.152C27.431 144.178 27.8371 144.605 27.8107 145.107L27.4448 152.102Z" fill="#2B454E"/>
<path d="M26.9403 152.809L25.0127 152.718L25.0509 151.988L26.9785 152.08L26.9403 152.809Z" fill="#2B454E"/>
<path d="M25.8722 160.62L25.2603 160.591L25.6705 152.749L26.2825 152.778L25.8722 160.62Z" fill="#ECECEC"/>
<path d="M26.1471 161.324C26.1471 161.324 25.7086 162.513 25.6681 162.511L25.4656 162.501L25.4622 162.501L25.2597 162.491C25.2192 162.489 24.9067 161.265 24.9067 161.265L25.2593 160.593L25.8667 160.622L26.1471 161.324Z" fill="#ECECEC"/>
<path d="M25.3969 151.234L24.8972 151.21L25.217 145.1L25.7166 145.124L25.3969 151.234Z" fill="#1A2E35"/>
<path d="M26.3241 151.278L25.8245 151.254L26.1442 145.144L26.6435 145.168L26.3241 151.278Z" fill="#1A2E35"/>
<path d="M27.2514 151.322L26.7517 151.298L27.0714 145.188L27.5707 145.212L27.2514 151.322Z" fill="#1A2E35"/>
<path d="M30.1158 160.005L32.5644 159.724L30.7319 145.253L28.2837 145.535L30.1158 160.005Z" fill="#1A2E35"/>
<path d="M28.1732 147.083L31.2254 146.732L30.8571 143.824L27.8049 144.175L28.1732 147.083Z" fill="#C8C8C8"/>
<path d="M30.875 143.964C30.875 143.964 33.7832 141.969 35.3001 141.795L35.9357 146.813L31.2077 146.591L30.875 143.964Z" fill="#C8C8C8"/>
<mask id="mask16_239_11" style="mask-type:luminance" maskUnits="userSpaceOnUse" x="31" y="141" width="5" height="6">
<path d="M31.0493 141.835H35.5923V146.704H31.0493V141.835Z" fill="white"/>
</mask>
<g mask="url(#mask16_239_11)">
<g opacity="0.199997">
<path d="M35.5923 144.114L33.6219 146.704H33.6189L32.4229 146.648L35.4177 142.724L35.5923 144.114Z" fill="white"/>
<path d="M35.0752 141.835L31.439 146.603L31.2086 146.591L31.1555 146.164L34.2631 142.085C34.5496 141.973 34.8273 141.883 35.0752 141.835Z" fill="white"/>
<path d="M33.6221 142.367L31.0936 145.682L31.0493 145.333L33.1201 142.617C33.2852 142.53 33.4536 142.445 33.6221 142.367Z" fill="white"/>
</g>
</g>
<path d="M35.582 147.156L33.7217 146.87L34.1896 144.103L36.0504 144.389L35.582 147.156Z" fill="#ECECEC"/>
<path d="M35.9108 145.214C35.9108 145.214 36.9777 145.378 37.1695 145.408C37.3617 145.437 38.2395 144.725 38.8301 144.816C39.4206 144.907 38.9175 144.83 39.4783 144.916C40.0395 145.002 42.3097 145.909 42.074 147.302C41.8383 148.695 41.9334 148.132 41.9334 148.132C41.9334 148.132 41.7325 147.351 41.2244 147.131C40.6385 146.877 40.0888 147.216 39.9046 147.59C39.6735 148.059 39.4638 148.806 39.4638 148.806L37.1531 148.451C37.1531 148.451 37.0843 147.336 36.9365 146.956C36.7887 146.576 35.6938 146.495 35.6938 146.495L35.9108 145.214Z" fill="#ECECEC"/>
<path d="M38.1782 153.672L36.7434 153.451L37.5788 148.517L39.0136 148.737L38.1782 153.672Z" fill="#ECECEC"/>
<path d="M37.0591 162.407L34.9233 162.079L36.7825 151.094L38.9187 151.422L37.0591 162.407Z" fill="#1A2E35"/>
<path d="M41.0607 164.09H19.0728V152.992H41.0607V164.09Z" fill="#FFC800"/>
<mask id="mask17_239_11" style="mask-type:luminance" maskUnits="userSpaceOnUse" x="19" y="154" width="23" height="10">
<path d="M19.0732 154.171H41.0608V163.414H19.0732V154.171Z" fill="white"/>
</mask>
<g mask="url(#mask17_239_11)">
<g opacity="0.100006">
<path d="M19.0732 154.276C20.1398 154.233 21.2059 154.212 22.2725 154.195C23.339 154.178 24.4052 154.179 25.4717 154.17L28.671 154.195C29.7375 154.212 30.8041 154.232 31.8702 154.276C30.8041 154.32 29.7375 154.34 28.671 154.357L25.4717 154.381C24.4052 154.373 23.339 154.374 22.2725 154.357C21.2059 154.34 20.1398 154.32 19.0732 154.276Z" fill="black"/>
<path d="M24.2871 155.285C25.6848 155.241 27.0826 155.221 28.4807 155.204L32.6743 155.179L36.8675 155.203C38.2653 155.22 39.663 155.241 41.0611 155.285C39.663 155.328 38.2653 155.349 36.8675 155.366L32.6743 155.39L28.4807 155.366C27.0826 155.348 25.6848 155.328 24.2871 155.285Z" fill="black"/>
<path d="M37.3304 156.803C36.0434 156.847 34.7564 156.867 33.4695 156.884L29.6086 156.909L25.7473 156.884C24.4608 156.867 23.1734 156.847 21.8865 156.803C23.1734 156.759 24.4608 156.739 25.7473 156.722L29.6086 156.698L33.4695 156.722C34.7564 156.739 36.0434 156.76 37.3304 156.803Z" fill="black"/>
<path d="M19.0732 157.412C19.8915 157.368 20.7093 157.347 21.5272 157.33C22.3451 157.313 23.1633 157.315 23.9812 157.306C24.799 157.314 25.6169 157.313 26.4351 157.33C27.253 157.347 28.0713 157.367 28.8891 157.412C28.0713 157.455 27.253 157.476 26.4351 157.493C25.6169 157.51 24.799 157.509 23.9812 157.517C23.1633 157.508 22.3451 157.51 21.5272 157.492C20.7093 157.476 19.8915 157.455 19.0732 157.412Z" fill="black"/>
<path d="M19.0732 158.144L21.528 158.092L23.9823 158.063L28.8914 158.039L33.8005 158.063L36.2552 158.092L38.7096 158.144L36.2552 158.196L33.8005 158.225L28.8914 158.249L23.9823 158.225L21.528 158.195L19.0732 158.144Z" fill="black"/>
<path d="M41.061 158.722C40.1637 158.765 39.2664 158.786 38.3694 158.803C37.4721 158.82 36.5748 158.819 35.6775 158.827C34.7802 158.819 33.8828 158.82 32.9859 158.803C32.0886 158.786 31.1913 158.766 30.2939 158.722C31.1913 158.678 32.0886 158.658 32.9859 158.641C33.8828 158.623 34.7802 158.625 35.6775 158.617C36.5748 158.625 37.4721 158.623 38.3694 158.641C39.2664 158.658 40.1637 158.678 41.061 158.722Z" fill="black"/>
<path d="M27.3862 159.611C28.2148 159.567 29.0437 159.547 29.8723 159.53C30.7008 159.513 31.5298 159.514 32.3583 159.506C33.1873 159.514 34.0158 159.513 34.8444 159.53C35.6733 159.547 36.5019 159.567 37.3305 159.611C36.5019 159.655 35.6733 159.675 34.8444 159.692C34.0158 159.709 33.1873 159.708 32.3583 159.716C31.5298 159.708 30.7008 159.709 29.8723 159.692C29.0437 159.675 28.2148 159.654 27.3862 159.611Z" fill="black"/>
<path d="M19.0732 161.256C20.4393 161.213 21.8049 161.192 23.1713 161.175L27.2691 161.151L31.3668 161.175C32.7324 161.192 34.0984 161.212 35.4645 161.256C34.0984 161.3 32.7324 161.32 31.3668 161.337L27.2691 161.362L23.1713 161.337C21.8049 161.32 20.4393 161.3 19.0732 161.256Z" fill="black"/>
<path d="M41.0609 162.372C40.1448 162.416 39.2288 162.436 38.3124 162.453C37.3963 162.47 36.4799 162.469 35.5639 162.478C34.6478 162.469 33.7314 162.47 32.8154 162.453C31.8993 162.436 30.9833 162.416 30.0669 162.372C30.9833 162.328 31.8993 162.308 32.8154 162.291C33.7314 162.274 34.6478 162.275 35.5639 162.267C36.4799 162.275 37.3963 162.274 38.3124 162.291C39.2288 162.308 40.1448 162.329 41.0609 162.372Z" fill="black"/>
<path d="M19.073 163.308C19.8389 163.265 20.6052 163.244 21.3715 163.227C22.1374 163.21 22.9033 163.211 23.6696 163.203C24.4355 163.211 25.2014 163.21 25.9677 163.227C26.7336 163.244 27.4999 163.265 28.2658 163.308C27.4999 163.352 26.7336 163.373 25.9677 163.39C25.2014 163.406 24.4355 163.405 23.6696 163.414C22.9033 163.405 22.1374 163.406 21.3715 163.389C20.6052 163.372 19.8389 163.352 19.073 163.308Z" fill="black"/>
</g>
</g>
</g>
</svg>
