<svg width="256" height="240" viewBox="0 0 256 240" fill="none" xmlns="http://www.w3.org/2000/svg">
<mask id="mask0_164_838" style="mask-type:luminance" maskUnits="userSpaceOnUse" x="0" y="0" width="256" height="240">
<path d="M0 0H256V240H0V0Z" fill="white"/>
</mask>
<g mask="url(#mask0_164_838)">
<path d="M47.5123 113.202C59.0261 115.714 70.5398 118.226 82.0541 120.738C76.7908 105.054 96.3983 94.7958 91.1355 79.1115C79.6218 76.5996 68.1081 74.0876 56.5943 71.5752C61.857 87.2595 42.2496 97.5181 47.5123 113.202Z" fill="white"/>
<path d="M64.0879 103.539L70.7499 104.799L69.6379 110.676L62.9758 109.415L64.0879 103.539ZM70.8339 103.103L64.6135 101.925L64.7313 101.304C64.9315 100.245 65.2145 99.4086 65.5792 98.7937C65.9445 98.1793 66.4158 97.644 66.9936 97.1878C67.572 96.7321 68.8201 95.9735 70.7392 94.9126C71.7592 94.3595 72.3263 93.7833 72.4398 93.1829C72.5533 92.583 72.4646 92.0827 72.173 91.6824C71.8814 91.2827 71.3751 91.0148 70.6553 90.8781C69.88 90.7318 69.1903 90.8668 68.5861 91.2838C67.9814 91.7007 67.4875 92.5335 67.1039 93.7838L60.9019 91.7959C61.562 89.5024 62.766 87.783 64.514 86.6387C66.2625 85.4943 68.6641 85.2113 71.72 85.7897C74.0985 86.24 75.925 87.1003 77.2 88.3699C78.9318 90.0883 79.5861 92.0655 79.1627 94.303C78.9873 95.2305 78.5612 96.0768 77.8854 96.8418C77.2092 97.6069 75.9621 98.4612 74.1447 99.4059C72.8772 100.07 72.0487 100.64 71.6597 101.115C71.2702 101.589 70.9947 102.252 70.8339 103.103Z" stroke="#03172D" stroke-miterlimit="10"/>
<path d="M172.369 96.9044C182.515 90.9106 192.663 84.9172 202.809 78.9239C188.28 71.011 195.669 50.1522 181.14 42.2398C170.993 48.2332 160.847 54.2265 150.7 60.2198C165.229 68.1327 157.84 88.9915 172.369 96.9044Z" fill="white"/>
<path d="M177.787 77.004L183.694 73.6743L186.631 78.8838L180.724 82.214L177.787 77.004ZM182.664 72.3229L177.149 75.432L176.838 74.8805C176.31 73.9422 175.986 73.1202 175.869 72.4149C175.752 71.7095 175.767 70.9962 175.915 70.2752C176.064 69.5543 176.529 68.17 177.312 66.1213C177.736 65.0416 177.798 64.2351 177.498 63.703C177.198 63.1709 176.808 62.846 176.327 62.7282C175.846 62.6103 175.287 62.7314 174.648 63.0913C173.961 63.4787 173.521 64.0264 173.327 64.7349C173.134 65.4435 173.293 66.3989 173.806 67.6014L167.782 70.0794C166.808 67.9005 166.621 65.8098 167.22 63.8079C167.819 61.806 169.473 60.0419 172.183 58.5145C174.291 57.3256 176.242 56.8059 178.035 56.9549C180.467 57.1523 182.242 58.2429 183.359 60.2259C183.824 61.0485 184.043 61.9701 184.02 62.9907C183.996 64.0113 183.594 65.4687 182.812 67.3625C182.272 68.6876 182.005 69.6565 182.013 70.2704C182.021 70.8842 182.238 71.568 182.664 72.3229Z" stroke="#03172D" stroke-miterlimit="10"/>
<path d="M200.725 154.722C190.578 148.728 180.432 142.735 170.285 136.741C184.814 128.828 177.425 107.97 191.953 100.057C202.101 106.051 212.247 112.044 222.393 118.038C207.865 125.95 215.254 146.809 200.725 154.722Z" fill="white"/>
<path d="M190.608 130.977L196.667 134.019L193.982 139.364L187.924 136.321L190.608 130.977ZM197.213 132.411L191.556 129.571L191.84 129.005C192.323 128.042 192.825 127.315 193.346 126.824C193.865 126.333 194.466 125.948 195.147 125.669C195.827 125.389 197.236 125.003 199.373 124.51C200.506 124.259 201.209 123.86 201.484 123.315C201.758 122.769 201.809 122.263 201.639 121.799C201.468 121.334 201.056 120.937 200.4 120.608C199.696 120.254 198.996 120.194 198.3 120.429C197.604 120.664 196.9 121.329 196.188 122.426L190.771 118.811C192.036 116.787 193.666 115.464 195.661 114.844C197.657 114.225 200.044 114.612 202.822 116.008C204.986 117.095 206.506 118.424 207.383 119.995C208.576 122.122 208.662 124.204 207.64 126.238C207.216 127.082 206.574 127.779 205.714 128.329C204.853 128.879 203.42 129.357 201.412 129.766C200.011 130.057 199.059 130.377 198.554 130.726C198.049 131.076 197.602 131.638 197.213 132.411Z" stroke="#03172D" stroke-miterlimit="10"/>
<path d="M125.991 70.0914C125.991 70.0914 134.709 57.3721 145.614 63.7135C159.264 71.6516 142.778 90.5629 152.868 96.0354C162.958 101.507 173.389 101.934 176.296 117.07C180.098 136.859 144.302 164.682 114.032 147.067C83.7624 129.453 94.5305 96.4868 108.746 89.9248C125.85 82.0291 125.991 70.0914 125.991 70.0914Z" fill="#03172D"/>
<path d="M138.422 103.846V117.414C138.422 119.677 137.502 121.724 136.018 123.207C134.543 124.691 132.496 125.611 130.233 125.611C125.708 125.611 122.044 121.939 122.044 117.414V103.846H138.422Z" fill="#E88B7B"/>
<path d="M104.147 94.5449C104.826 97.8649 108.069 100.005 111.389 99.3256C114.709 98.6461 116.849 95.4036 116.169 92.0836C115.489 88.7636 112.247 86.6229 108.927 87.3029C105.607 87.9824 103.467 91.2249 104.147 94.5449Z" fill="#E88B7B"/>
<path d="M113.351 84.2698V94.6134C113.351 94.6134 109.244 90.9647 109.358 83.7824L113.351 84.2698Z" fill="#03172D"/>
<path d="M105.828 92.2187L110.69 95.5085" stroke="#03172D" stroke-miterlimit="10"/>
<path d="M139.675 93.3139C140.355 96.6339 143.597 98.7741 146.917 98.0946C150.237 97.4146 152.377 94.1726 151.697 90.8526C151.018 87.5326 147.775 85.3919 144.455 86.0719C141.135 86.7514 138.995 89.994 139.675 93.3139Z" fill="#E88B7B"/>
<path d="M145.686 92.0832C145.686 92.0832 149.195 88.2451 147.962 79.1443H143.042L145.686 92.0832Z" fill="#03172D"/>
<path d="M144.675 94.7903L149.436 90.1796" stroke="#03172D" stroke-miterlimit="10"/>
<path d="M129.519 68.1025C120.589 68.1025 113.351 75.3408 113.351 84.27V96.0403C113.351 98.528 114.632 100.84 116.74 102.16L125.69 107.759C128.031 109.225 131.005 109.225 133.347 107.759L142.297 102.16C144.405 100.84 145.686 98.528 145.686 96.0403V84.27C145.686 75.3408 138.447 68.1025 129.519 68.1025Z" fill="#E88B7B"/>
<path d="M122.043 105.613L125.689 107.895C128.031 109.36 131.005 109.36 133.347 107.895" stroke="#03172D" stroke-miterlimit="10"/>
<path d="M128.164 68.1026L132.221 96.0393H127.13" stroke="#03172D" stroke-miterlimit="10"/>
<path d="M144.966 92.4848C144.966 94.7697 143.114 96.6215 140.829 96.6215C138.544 96.6215 136.692 94.7697 136.692 92.4848C136.692 90.2 138.544 88.3482 140.829 88.3482C143.114 88.3482 144.966 90.2 144.966 92.4848Z" fill="#E5715C"/>
<path d="M122.945 92.4848C122.945 94.7697 121.093 96.6215 118.808 96.6215C116.523 96.6215 114.671 94.7697 114.671 92.4848C114.671 90.2 116.523 88.3482 118.808 88.3482C121.093 88.3482 122.945 90.2 122.945 92.4848Z" fill="#E5715C"/>
<path d="M138.415 88.5318C138.415 89.9688 137.783 91.126 136.996 91.126C136.209 91.126 135.568 89.9688 135.568 88.5318C135.568 87.3751 135.993 86.39 136.571 86.0645H136.581L138.325 87.6102C138.379 87.89 138.415 88.2063 138.415 88.5318Z" fill="#03172D"/>
<path d="M123.466 88.5318C123.466 89.9688 122.833 91.126 122.047 91.126C121.252 91.126 120.619 89.9688 120.619 88.5318C120.619 88.1159 120.673 87.7275 120.773 87.3837L122.77 86.3174C123.195 86.7693 123.466 87.5919 123.466 88.5318Z" fill="#03172D"/>
<path d="M148.419 65.903C137.512 59.5626 125.987 70.0875 125.987 70.0875C125.987 70.0875 125.846 82.0311 108.747 89.9214C105.142 91.5876 100.31 97.5158 98.0474 101.122C98.0474 101.122 103.045 86.7058 104.62 77.3812C106.203 68.0485 114.491 69.4909 114.491 69.4909C114.491 69.4909 119.514 57.2159 133.405 57.274C143.028 57.3154 148.419 65.903 148.419 65.903Z" fill="#03172D"/>
<path d="M137.34 78.4002C139.318 77.1133 140.564 77.3995 140.268 80.1439L137.34 78.4002Z" fill="#03172D"/>
<path d="M117.59 80.7368C117.145 78.4197 117.88 77.3738 120.31 78.6833L117.59 80.7368Z" fill="#03172D"/>
<path d="M126.907 100.745C129.053 97.8426 131.758 99.0337 132.444 100.745" stroke="#03172D" stroke-miterlimit="10"/>
<path d="M198.982 155.797C201.641 152.459 201.092 147.597 197.754 144.936L167.723 121.004C164.385 118.344 159.523 118.893 156.863 122.232C154.203 125.569 154.752 130.432 158.09 133.092L188.121 157.025C191.459 159.685 196.322 159.135 198.982 155.797Z" fill="#E88B7B"/>
<path d="M62.7589 157.114C60.099 153.777 60.6483 148.914 63.9861 146.254L94.0172 122.321C97.355 119.661 102.217 120.211 104.878 123.549C107.538 126.886 106.988 131.75 103.65 134.41L73.6195 158.342C70.2818 161.002 65.4188 160.453 62.7589 157.114Z" fill="#E88B7B"/>
<path d="M154.554 113.24L132.221 120.66V120.898L109.171 113.24C101.874 110.816 94.9035 117.688 97.2239 125.019L114.518 179.658H132.221H145.438L166.501 125.019C168.822 117.688 161.851 110.816 154.554 113.24Z" fill="#FFB920"/>
<path d="M141.438 128.768L143.74 113.602L117.717 111.076L120.135 128.768H141.438Z" fill="#FFB920"/>
<path d="M118.304 116.057C118.304 116.057 121.394 145.967 131.452 149.167C131.941 149.323 132.41 149.397 132.859 149.397C141.65 149.397 142.971 121.037 142.971 121.037C142.006 127.325 138.156 130.39 133.682 130.39C128.034 130.39 121.392 125.506 118.304 116.057ZM119.134 119.309C122.738 127.214 128.815 130.794 133.682 130.794C137.546 130.794 140.624 128.626 142.271 124.937C142.017 127.637 141.569 131.401 140.816 135.137C139.542 141.458 137.127 148.994 132.859 148.994C132.446 148.994 132.014 148.923 131.575 148.783C123.843 146.323 120.277 127.127 119.134 119.309Z" fill="#03172D"/>
<path d="M108.302 170.13L151.281 167.8L147.514 178.69L111.735 178.303L108.302 170.13Z" fill="#26333B"/>
<path d="M147.515 178.69C147.515 178.69 162.236 192.301 163.109 216.578H97.2734C97.2734 193.762 111.735 178.303 111.735 178.303L147.515 178.69Z" fill="#26333B"/>
<path d="M130.622 181.146L131.504 199.167C131.504 199.167 127.995 197.747 128.08 191.708" stroke="white" stroke-miterlimit="10"/>
<path d="M155.4 188.721H144.734C144.734 188.721 149.705 200.339 160.278 199.32" stroke="white" stroke-miterlimit="10"/>
<path d="M98.8452 200.99C98.8452 200.99 106.72 202.886 113.704 191.698" stroke="white" stroke-miterlimit="10"/>
<path d="M120.401 180.556H112.953V176.832H120.401V180.556Z" fill="#5C5C5C"/>
<path d="M145.65 180.556H138.202V176.832H145.65V180.556Z" fill="#5C5C5C"/>
<path d="M135.176 180.556H123.861V176.832H135.176V180.556Z" fill="#5C5C5C"/>
<path d="M132.296 181.304H126.74V176.083H132.296V181.304Z" fill="white"/>
<path d="M65.0934 145.352C69.66 142.495 75.6764 143.882 78.5327 148.448L97.9507 183.385L92.0036 190.27L61.9972 158.79C59.141 154.224 60.5274 148.208 65.0934 145.352Z" fill="#E88B7B"/>
<path d="M95.5311 181.25C103.395 181.217 110.505 177.256 110.505 177.256L114.924 191.06C101.982 195.967 95.4348 192.735 91.9846 190.292L95.5311 181.25Z" fill="#E88B7B"/>
<path d="M110.505 177.256C110.505 177.256 117.751 176.611 122.926 180.03L123.861 188.65C123.861 188.65 117.816 186.672 113.94 187.986C113.94 187.986 120.63 189.255 123.222 192.07L121.386 193.921C121.386 193.921 115.601 191.365 109.338 192.251L110.505 177.256Z" fill="#E88B7B"/>
<path d="M123.11 182.228C123.11 182.228 117.071 180.272 112.533 180.143" stroke="#03172D" stroke-miterlimit="10"/>
<path d="M123.53 185.595C123.53 185.595 118.211 183.451 112.685 183.855" stroke="#03172D" stroke-miterlimit="10"/>
<path d="M85.6362 119.956L95.7539 130.83L101.675 146.133L91.3487 134.421L85.6362 119.956Z" fill="#FF931F"/>
<path d="M100.292 114.851L82.8359 125.37L95.1061 145.54L106.562 137.728L100.292 114.851Z" fill="#FFB920"/>
<path d="M85.6361 119.956L91.3485 134.421L101.675 146.133L93.0083 149.338L84.9038 138.264L79.25 124.131L85.6361 119.956Z" fill="white"/>
<path d="M80.9602 152.815L78.5327 148.448" stroke="#03172D" stroke-miterlimit="10"/>
<path d="M196.647 144.034C192.081 141.178 186.064 142.565 183.208 147.131L163.79 182.068L169.737 188.953L199.744 157.473C202.599 152.907 201.213 146.891 196.647 144.034Z" fill="#E88B7B"/>
<path d="M166.21 179.933C158.346 179.9 151.236 175.939 151.236 175.939L146.817 189.743C159.759 194.65 166.306 191.417 169.757 188.974L166.21 179.933Z" fill="#E88B7B"/>
<path d="M151.236 175.939C151.236 175.939 143.99 175.294 138.815 178.713L137.88 187.332C137.88 187.332 143.925 185.355 147.801 186.668C147.801 186.668 141.111 187.938 138.519 190.753L140.354 192.604C140.354 192.604 146.14 190.048 152.402 190.933L151.236 175.939Z" fill="#E88B7B"/>
<path d="M138.631 180.91C138.631 180.91 144.67 178.954 149.208 178.826" stroke="#03172D" stroke-miterlimit="10"/>
<path d="M138.211 184.278C138.211 184.278 143.53 182.134 149.055 182.537" stroke="#03172D" stroke-miterlimit="10"/>
<path d="M176.105 118.639L165.987 129.513L160.066 144.816L170.392 133.103L176.105 118.639Z" fill="#FF931F"/>
<path d="M161.448 113.533L178.904 124.052L166.635 144.222L155.178 136.41L161.448 113.533Z" fill="#FFB920"/>
<path d="M176.105 118.639L170.392 133.103L160.066 144.816L168.733 148.021L176.837 136.947L182.491 122.813L176.105 118.639Z" fill="white"/>
<path d="M180.781 151.498L183.208 147.131" stroke="#03172D" stroke-miterlimit="10"/>
<path d="M161.664 216.578H98.9997C98.5596 216.578 98.2024 216.221 98.2024 215.78V215.072H162.461V215.78C162.461 216.221 162.104 216.578 161.664 216.578Z" fill="#DFDFDF"/>
<path d="M143.627 192.28H117.105V201.357C125.852 199.363 134.729 197.71 143.627 196.176V192.28Z" fill="#979797"/>
<path d="M117.104 201.357V210.753H143.626V196.176C134.729 197.711 125.851 199.363 117.104 201.357Z" fill="#DFDFDF"/>
<path d="M162.118 215.504H98.6134C98.184 215.504 98.0872 214.901 98.495 214.767L117.105 208.642H143.627L162.236 214.767C162.645 214.901 162.548 215.504 162.118 215.504Z" fill="#DFDFDF"/>
<path d="M140.618 208.642H142.998" stroke="#03172D" stroke-miterlimit="10"/>
<path d="M117.104 208.642H138.171" stroke="#03172D" stroke-miterlimit="10"/>
<path d="M117.104 201.357L137.069 197.333" stroke="#03172D" stroke-miterlimit="10"/>
<path d="M143.626 192.28V208.642" stroke="#03172D" stroke-miterlimit="10"/>
<path d="M116.556 215.504H161.687" stroke="#03172D" stroke-miterlimit="10"/>
<path d="M117.104 193.376V207.251" stroke="#03172D" stroke-miterlimit="10"/>
<path d="M182.433 194.319H78.2658C75.7813 194.319 73.7676 192.305 73.7676 189.821V121.021C73.7676 118.536 75.7813 116.522 78.2658 116.522H182.433C184.917 116.522 186.931 118.536 186.931 121.021V189.821C186.931 192.305 184.917 194.319 182.433 194.319Z" fill="#DFDFDF"/>
<path d="M186.931 133.045V189.82C186.931 192.305 184.917 194.319 182.433 194.319H132.599" stroke="#03172D" stroke-miterlimit="10"/>
<path d="M73.7676 179.658V121.021C73.7676 118.536 75.7819 116.522 78.2663 116.522H182.433" stroke="#03172D" stroke-miterlimit="10"/>
<path d="M152.572 144.743C149.487 144.743 146.652 145.805 144.406 147.579C144.406 147.536 144.407 147.493 144.407 147.449C144.407 139.686 138.113 133.391 130.349 133.391C122.586 133.391 116.292 139.686 116.292 147.449C116.292 147.493 116.293 147.536 116.293 147.579C114.048 145.805 111.212 144.743 108.127 144.743C100.844 144.743 94.9399 150.647 94.9399 157.931C94.9399 165.214 100.844 171.118 108.127 171.118C108.299 171.118 108.468 171.112 108.638 171.105C108.807 171.112 108.977 171.118 109.149 171.118H151.751C151.888 171.118 152.024 171.112 152.161 171.107C152.298 171.112 152.434 171.118 152.572 171.118C159.855 171.118 165.76 165.214 165.76 157.931C165.76 150.647 159.855 144.743 152.572 144.743Z" fill="white"/>
<path d="M152.572 144.743C149.487 144.743 146.652 145.805 144.406 147.579C144.406 147.536 144.407 147.493 144.407 147.449C144.407 139.686 138.113 133.391 130.349 133.391C122.586 133.391 116.292 139.686 116.292 147.449C116.292 147.493 116.293 147.536 116.293 147.579C114.048 145.805 111.212 144.743 108.127 144.743C100.844 144.743 94.9399 150.647 94.9399 157.931C94.9399 165.214 100.844 171.118 108.127 171.118C108.299 171.118 108.468 171.112 108.638 171.105C108.807 171.112 108.977 171.118 109.149 171.118" stroke="#03172D" stroke-miterlimit="10"/>
<path d="M117.252 166.418C117.252 159.184 123.116 153.32 130.35 153.32C137.583 153.32 143.447 159.184 143.447 166.418C143.447 173.651 137.583 179.515 130.35 179.515C123.116 179.515 117.252 173.651 117.252 166.418Z" fill="#03172D"/>
<path d="M135.933 171.289L131.062 166.417L135.933 161.547C136.129 161.351 136.129 161.03 135.933 160.834C135.737 160.638 135.416 160.638 135.22 160.834L130.349 165.705L125.479 160.834C125.283 160.638 124.962 160.638 124.766 160.834C124.57 161.03 124.57 161.351 124.766 161.547L129.637 166.417L124.766 171.289C124.57 171.484 124.57 171.805 124.766 172.001C124.962 172.197 125.282 172.197 125.478 172.001L130.349 167.13L135.22 172.001C135.416 172.197 135.737 172.197 135.933 172.001C136.129 171.805 136.129 171.484 135.933 171.289Z" fill="white"/>
<path d="M93.6556 207.776H34.3406V198.988H93.6556V207.776Z" fill="#5C5C5C"/>
<path d="M68.5139 206.854H36.5374V199.911H68.5139V206.854Z" fill="white"/>
<path d="M38.1085 206.413H37.3914V200.351H38.1085V206.413Z" fill="#5C5C5C"/>
<path d="M67.1559 206.413H66.4387V200.351H67.1559V206.413Z" fill="#5C5C5C"/>
<path d="M82.5491 200.209C84.3019 200.209 85.7222 201.63 85.7222 203.382C85.7222 205.134 84.3019 206.555 82.5491 206.555C80.7968 206.555 79.376 205.134 79.376 203.382C79.376 201.63 80.7968 200.209 82.5491 200.209Z" fill="#979797"/>
<path d="M82.5491 200.69C84.0361 200.69 85.2418 201.895 85.2418 203.382C85.2418 204.87 84.0361 206.075 82.5491 206.075C81.0621 206.075 79.8569 204.87 79.8569 203.382C79.8569 201.895 81.0621 200.69 82.5491 200.69Z" fill="#DFDFDF"/>
<path d="M92.6792 207.01V205.541" stroke="#03172D" stroke-miterlimit="10"/>
<path d="M91.5806 207.01V206.156" stroke="#03172D" stroke-miterlimit="10"/>
<path d="M93.6556 216.563H34.3406V207.776H93.6556V216.563Z" fill="#FFB920"/>
<path d="M68.5139 215.641H36.5374V208.698H68.5139V215.641Z" fill="white"/>
<path d="M38.1085 215.201H37.3914V209.138H38.1085V215.201Z" fill="#DFDFDF"/>
<path d="M67.1559 215.201H66.4387V209.138H67.1559V215.201Z" fill="#DFDFDF"/>
<path d="M82.5491 208.996C84.3019 208.996 85.7222 210.417 85.7222 212.169C85.7222 213.922 84.3019 215.343 82.5491 215.343C80.7968 215.343 79.376 213.922 79.376 212.169C79.376 210.417 80.7968 208.996 82.5491 208.996Z" fill="#5C5C5C"/>
<path d="M82.5491 209.477C84.0361 209.477 85.2418 210.682 85.2418 212.17C85.2418 213.657 84.0361 214.862 82.5491 214.862C81.0621 214.862 79.8569 213.657 79.8569 212.17C79.8569 210.682 81.0621 209.477 82.5491 209.477Z" fill="#DFDFDF"/>
<path d="M91.7029 209.929V210.672" stroke="#03172D" stroke-miterlimit="10"/>
<path d="M92.801 212.137V210.18" stroke="#03172D" stroke-miterlimit="10"/>
<path d="M228.854 73.9911L228.758 73.5774C229.273 73.459 229.804 73.3988 230.335 73.3988H230.337C230.856 73.3988 231.374 73.4558 231.875 73.5683L231.782 73.982C231.311 73.8771 230.825 73.8233 230.337 73.8233H230.335C229.836 73.8233 229.337 73.8798 228.854 73.9911ZM236.259 77.5269C235.829 76.6456 235.195 75.8564 234.424 75.2452L234.688 74.9122C235.508 75.5626 236.183 76.403 236.64 77.3413L236.259 77.5269ZM224.4 77.5629L224.016 77.3789C224.468 76.4374 225.138 75.5938 225.954 74.9385L226.22 75.27C225.453 75.8854 224.823 76.6784 224.4 77.5629ZM236.652 83.4449L236.269 83.2603C236.701 82.3662 236.919 81.4058 236.919 80.4057L237.224 80.3858L237.344 80.396C237.344 81.4704 237.112 82.4931 236.652 83.4449ZM224.029 83.4572C223.568 82.5061 223.333 81.4844 223.331 80.4202L223.756 80.4192C223.758 81.4193 223.978 82.3791 224.411 83.2722L224.029 83.4572ZM231.903 87.2372L231.808 86.8235C232.764 86.6051 233.676 86.1645 234.444 85.5501L234.709 85.882C233.89 86.5357 232.92 87.0048 231.903 87.2372ZM228.786 87.2394C227.768 87.0091 226.797 86.5427 225.976 85.8895L226.242 85.5576C227.011 86.1709 227.924 86.6094 228.88 86.8251L228.786 87.2394Z" fill="#26333B"/>
<path d="M24.2748 71.0815L24.1914 70.6651C25.0516 70.4935 25.9361 70.4063 26.8211 70.4063C26.9486 70.4063 27.0697 70.408 27.1934 70.4112L27.1816 70.8357C27.0621 70.8324 26.9346 70.8233 26.8211 70.8308C25.9641 70.8308 25.1076 70.9153 24.2748 71.0815ZM32.7951 72.2861C31.93 71.8358 31.0137 71.4845 30.0712 71.2408L30.1772 70.8303C31.1509 71.0815 32.0978 71.4447 32.9914 71.9101L32.7951 72.2861ZM18.9916 73.467L18.7344 73.1292C19.5361 72.5196 20.4065 72.0004 21.3222 71.5867L21.4971 71.9735C20.6104 72.3744 19.7679 72.8768 18.9916 73.467ZM37.2115 76.0451C36.6288 75.2645 35.9574 74.5484 35.2155 73.9168L35.491 73.5935C36.2566 74.2455 36.9506 74.9853 37.5521 75.7912L37.2115 76.0451ZM15.274 77.9174L14.8953 77.7253C15.3509 76.8295 15.9099 75.9827 16.5555 75.2096L16.8816 75.4824C16.2559 76.2307 15.7152 77.0501 15.274 77.9174ZM39.548 81.3498C39.3662 80.3932 39.0746 79.4555 38.6819 78.564L39.0703 78.393C39.4759 79.314 39.7772 80.2824 39.965 81.2707L39.548 81.3498ZM13.8747 83.5438L13.4502 83.5362C13.4685 82.5264 13.5998 81.5214 13.8413 80.5493L14.2534 80.6515C14.0194 81.593 13.8924 82.5662 13.8747 83.5438ZM39.8644 86.7766L39.4501 86.6819C39.6664 85.7367 39.7756 84.7613 39.7756 83.7826H40.2006C40.2006 84.793 40.0877 85.8007 39.8644 86.7766ZM14.6795 89.3961C14.2561 88.4831 13.9376 87.5207 13.7316 86.5361L14.1469 86.449C14.3465 87.4018 14.6553 88.3336 15.0647 89.2181L14.6795 89.3961ZM37.2486 92.1647L36.9178 91.8989C37.53 91.1387 38.0556 90.3097 38.4812 89.4343L38.8632 89.6199C38.4236 90.5238 37.8808 91.3803 37.2486 92.1647ZM18.346 94.1295C17.568 93.4914 16.8617 92.7651 16.2456 91.9699L16.5808 91.7095C17.1775 92.4794 17.8623 93.1831 18.615 93.8007L18.346 94.1295ZM32.5492 95.8747L32.3674 95.4911C33.2459 95.0753 34.0793 94.5572 34.8448 93.9519L35.1085 94.2855C34.3176 94.9106 33.4563 95.4449 32.5492 95.8747ZM23.7099 96.7947C22.7312 96.5612 21.7779 96.2153 20.8762 95.7671L21.0656 95.3868C21.9382 95.8209 22.8614 96.1556 23.8088 96.3815L23.7099 96.7947ZM26.827 97.1589H26.8243L26.7011 97.1584L26.7049 96.7339L26.8243 96.7345H26.827C27.7642 96.7345 28.6993 96.6333 29.6069 96.4348L29.6978 96.8496C28.7606 97.0546 27.7944 97.1589 26.827 97.1589Z" fill="#26333B"/>
<path d="M43.385 91.2139C43.385 93.4418 41.579 95.2479 39.3511 95.2479C37.1233 95.2479 35.3167 93.4418 35.3167 91.2139C35.3167 88.9855 37.1233 87.1795 39.3511 87.1795C41.579 87.1795 43.385 88.9855 43.385 91.2139Z" fill="#26333B"/>
<path d="M184.136 20.2526C184.136 21.8946 182.805 23.225 181.163 23.225C179.522 23.225 178.191 21.8946 178.191 20.2526C178.191 18.6111 179.522 17.2801 181.163 17.2801C182.805 17.2801 184.136 18.6111 184.136 20.2526Z" fill="#26333B"/>
<path d="M227.578 75.2956C227.578 76.4679 226.626 77.4186 225.455 77.4186C224.282 77.4186 223.331 76.4679 223.331 75.2956C223.331 74.1228 224.282 73.1721 225.455 73.1721C226.626 73.1721 227.578 74.1228 227.578 75.2956Z" fill="#26333B"/>
<path d="M84.7251 58.6505C84.7251 60.4097 83.2994 61.8354 81.5402 61.8354C79.7815 61.8354 78.3552 60.4097 78.3552 58.6505C78.3552 56.8912 79.7815 55.4655 81.5402 55.4655C83.2994 55.4655 84.7251 56.8912 84.7251 58.6505Z" fill="#26333B"/>
<path d="M84.7546 58.0108L84.5528 57.6374C85.4567 57.1489 86.5042 56.9122 87.5248 56.9574L87.5059 57.3818C86.5628 57.341 85.5912 57.5588 84.7546 58.0108ZM92.0526 60.3742C91.6356 59.5129 90.9922 58.7785 90.1916 58.2502L90.4256 57.8956C91.2897 58.4659 91.9842 59.2589 92.4351 60.1886L92.0526 60.3742ZM81.9651 62.6849H81.54C81.54 61.6471 81.8203 60.6308 82.3503 59.7453L82.7145 59.9632C82.2238 60.7831 81.9651 61.724 81.9651 62.6849ZM91.9186 66.0442L91.5748 65.7951C92.137 65.0188 92.4776 64.1047 92.561 63.1503L92.9838 63.1874C92.8945 64.2182 92.526 65.206 91.9186 66.0442ZM83.713 67.1783C82.9012 66.5338 82.2782 65.6832 81.9118 64.7185L82.3088 64.5679C82.6478 65.461 83.2245 66.2486 83.9772 66.8458L83.713 67.1783ZM87.273 68.4173C87.0206 68.4173 86.7678 68.4006 86.5203 68.3683L86.5752 67.9476C87.5194 68.0714 88.4958 67.939 89.3722 67.5613L89.5401 67.9514C88.8229 68.2607 88.0606 68.4173 87.273 68.4173Z" fill="#26333B"/>
<path d="M184.306 18.4177L184.067 18.0669C184.921 17.4869 185.865 17.0974 186.876 16.9097L186.954 17.3271C186.001 17.5041 185.11 17.8711 184.306 18.4177ZM192.417 18.5893C191.636 18.0088 190.762 17.6042 189.817 17.3874L189.913 16.9737C190.914 17.2039 191.842 17.6333 192.67 18.2487L192.417 18.5893ZM181.313 23.1601L180.893 23.0967C181.047 22.0793 181.404 21.1211 181.955 20.2496L182.314 20.4771C181.795 21.2981 181.458 22.2009 181.313 23.1601ZM195.207 23.4517C195.102 22.4871 194.804 21.5714 194.32 20.7295L194.688 20.518C195.201 21.4106 195.518 22.3827 195.629 23.4065L195.207 23.4517ZM195.053 27.1898L194.664 27.0198C195.052 26.1342 195.247 25.1911 195.247 24.2157H195.672C195.672 25.2503 195.464 26.2504 195.053 27.1898ZM182.424 28.842C181.782 28.035 181.322 27.1214 181.058 26.1288L181.469 26.0196C181.717 26.9557 182.151 27.8165 182.757 28.5778L182.424 28.842ZM190.692 31.2339L190.551 30.8331C191.466 30.5141 192.291 30.017 193.005 29.3547L193.293 29.6656C192.536 30.3677 191.661 30.8955 190.692 31.2339ZM187.68 31.6266C186.652 31.5497 185.67 31.2662 184.761 30.7836L184.96 30.4092C185.817 30.8632 186.742 31.1306 187.711 31.2027L187.68 31.6266Z" fill="#26333B"/>
</g>
</svg>
