<svg width="22" height="22" viewBox="0 0 22 22" fill="none" xmlns="http://www.w3.org/2000/svg">
<path d="M11 22C4.9247 22 0 17.0753 0 11C0 4.9247 4.9247 0 11 0C17.0753 0 22 4.9247 22 11C22 17.0753 17.0753 22 11 22ZM11 19.8C13.3339 19.8 15.5722 18.8729 17.2225 17.2225C18.8729 15.5722 19.8 13.3339 19.8 11C19.8 8.66609 18.8729 6.42778 17.2225 4.77746C15.5722 3.12714 13.3339 2.2 11 2.2C8.66609 2.2 6.42778 3.12714 4.77746 4.77746C3.12714 6.42778 2.2 8.66609 2.2 11C2.2 13.3339 3.12714 15.5722 4.77746 17.2225C6.42778 18.8729 8.66609 19.8 11 19.8ZM11 4.4C12.167 4.4 13.2861 4.86357 14.1113 5.68873C14.9364 6.51389 15.4 7.63305 15.4 8.8V11C15.4 12.167 14.9364 13.2861 14.1113 14.1113C13.2861 14.9364 12.167 15.4 11 15.4C9.83305 15.4 8.71389 14.9364 7.88873 14.1113C7.06357 13.2861 6.6 12.167 6.6 11V8.8C6.6 7.63305 7.06357 6.51389 7.88873 5.68873C8.71389 4.86357 9.83305 4.4 11 4.4ZM11 6.6C10.4165 6.6 9.85695 6.83179 9.44437 7.24437C9.03179 7.65695 8.8 8.21652 8.8 8.8V11C8.8 11.5835 9.03179 12.1431 9.44437 12.5556C9.85695 12.9682 10.4165 13.2 11 13.2C11.5835 13.2 12.1431 12.9682 12.5556 12.5556C12.9682 12.1431 13.2 11.5835 13.2 11V8.8C13.2 8.21652 12.9682 7.65695 12.5556 7.24437C12.1431 6.83179 11.5835 6.6 11 6.6ZM6.501 18.5636C5.86738 18.1862 5.28351 17.7309 4.763 17.2084C5.41638 16.4406 6.24913 15.8459 7.1874 15.477C7.32264 15.4193 7.46808 15.3893 7.61511 15.3888C7.76215 15.3882 7.9078 15.4172 8.04345 15.4739C8.1791 15.5306 8.30201 15.614 8.4049 15.719C8.50779 15.824 8.58858 15.9486 8.64249 16.0854C8.6964 16.2222 8.72234 16.3685 8.71877 16.5155C8.7152 16.6624 8.6822 16.8072 8.62171 16.9412C8.56123 17.0753 8.47449 17.1958 8.36662 17.2957C8.25875 17.3956 8.13195 17.4729 7.9937 17.523C7.4085 17.754 6.9014 18.1148 6.4999 18.5636H6.501ZM15.4594 18.5878C15.0335 18.1167 14.502 17.7533 13.9084 17.5274C13.7693 17.4791 13.6413 17.4034 13.532 17.3048C13.4227 17.2061 13.3343 17.0865 13.2721 16.9531C13.2099 16.8196 13.1751 16.675 13.1697 16.5279C13.1644 16.3807 13.1887 16.234 13.2412 16.0964C13.2936 15.9588 13.3731 15.8332 13.475 15.7269C13.577 15.6206 13.6992 15.5359 13.8344 15.4777C13.9697 15.4195 14.1153 15.3891 14.2625 15.3882C14.4097 15.3873 14.5557 15.416 14.6916 15.4726C15.6638 15.8423 16.5276 16.4501 17.204 17.2403C16.681 17.7605 16.0949 18.2132 15.4594 18.5878Z" fill="#8E9EA7"/>
</svg>
