<svg width="23" height="22" viewBox="0 0 23 22" fill="none" xmlns="http://www.w3.org/2000/svg">
<path d="M12.7667 9.9H17.1667C17.4584 9.9 17.7382 10.0159 17.9445 10.2222C18.1508 10.4285 18.2667 10.7083 18.2667 11C18.2667 11.2917 18.1508 11.5715 17.9445 11.7778C17.7382 11.9841 17.4584 12.1 17.1667 12.1H11.6667C11.3749 12.1 11.0952 11.9841 10.8889 11.7778C10.6826 11.5715 10.5667 11.2917 10.5667 11V4.4C10.5667 4.10826 10.6826 3.82847 10.8889 3.62218C11.0952 3.41589 11.3749 3.3 11.6667 3.3C11.9584 3.3 12.2382 3.41589 12.4445 3.62218C12.6508 3.82847 12.7667 4.10826 12.7667 4.4V9.9ZM11.6667 22C5.59139 22 0.666687 17.0753 0.666687 11C0.666687 4.9247 5.59139 0 11.6667 0C17.742 0 22.6667 4.9247 22.6667 11C22.6667 17.0753 17.742 22 11.6667 22ZM11.6667 19.8C14.0006 19.8 16.2389 18.8729 17.8892 17.2225C19.5395 15.5722 20.4667 13.3339 20.4667 11C20.4667 8.66609 19.5395 6.42778 17.8892 4.77746C16.2389 3.12714 14.0006 2.2 11.6667 2.2C9.33278 2.2 7.09447 3.12714 5.44415 4.77746C3.79383 6.42778 2.86669 8.66609 2.86669 11C2.86669 13.3339 3.79383 15.5722 5.44415 17.2225C7.09447 18.8729 9.33278 19.8 11.6667 19.8Z" fill="#8E9EA7"/>
</svg>
